<svg viewBox="0 0 81 78" fill="none" xmlns="http://www.w3.org/2000/svg">
    <path
        d="M19.5571 55.5091C18.8239 56.1907 18.0355 56.8231 17.3719 57.5671C16.4239 58.6303 16.0183 59.8591 16.6099 61.2751C17.2267 62.7511 18.7375 62.9815 19.8163 61.7827C20.0671 61.5043 20.4595 61.3555 20.7871 61.1467C20.9515 61.5967 21.2803 62.0575 21.2515 62.4955C21.1315 64.3435 18.8059 65.1667 17.1235 63.9967C15.3079 62.7355 14.7835 60.3595 15.8635 58.2919C16.5487 56.9719 18.1435 55.5871 19.3339 55.2559L19.5571 55.5091Z"
        fill="#22283A" />
    <path
        d="M42.6121 3.89062C48.5977 11.4662 45.0841 24.1898 38.4721 30.2258C30.1909 37.955 20.6149 44.465 13.0705 52.9862C10.2049 56.2262 9.77052 57.527 8.83692 60.8174C8.15892 63.2066 8.62092 64.967 10.1293 66.6002C13.7893 70.5602 22.4737 70.7822 26.3293 67.0406C28.2193 65.207 28.7749 62.9402 28.1641 60.4106C27.5845 58.0106 27.0505 55.5986 26.2717 53.2658C24.7225 48.6218 27.1297 45.833 30.0049 42.5858C30.9649 44.3858 31.6645 45.743 32.7313 47.5958C33.2665 46.889 33.6349 46.3958 34.0057 45.9158C39.8461 37.6106 55.2565 26.0354 62.6617 38.309C65.9521 44.171 60.7693 52.9358 57.5485 57.887C57.3457 58.2074 56.9401 58.3982 56.6101 58.6646C54.0397 56.3222 51.2101 57.149 48.4441 57.8786C44.6509 58.8782 40.9561 60.3734 36.9241 60.077C35.7025 59.987 34.4869 59.8286 33.3241 59.7074C46.6201 74.4566 65.2177 71.0534 75.6301 55.1198C75.9121 54.7202 75.6001 53.5286 75.1729 53.0678C73.6621 51.431 71.8969 50.0282 70.3789 48.3974C66.1873 43.895 65.7721 39.5174 68.9389 34.2938C70.2805 32.0822 71.6257 29.873 73.0189 27.6938C73.9237 26.2766 74.4685 26.297 75.1393 27.785C76.7113 31.265 78.2773 34.7522 79.7497 38.2754C81.0385 41.3582 81.1897 44.537 80.2297 47.765C77.2705 57.7322 72.1441 66.3014 63.5233 72.3662C52.2673 80.8394 38.5885 71.6282 32.6041 61.097C31.7017 62.849 30.9781 64.577 29.9797 66.1274C24.3001 76.0322 7.74132 80.8574 4.61652 66.4598C1.69572 51.4598 10.2457 44.4134 20.6521 35.6354C25.1821 31.7162 29.9761 28.091 34.3633 24.0242C38.0293 20.6258 40.6525 16.397 41.5633 11.3558C41.9509 8.93783 41.8321 6.42383 42.0217 3.97343L42.6121 3.89062ZM34.5385 50.003C36.5305 50.6606 38.0485 51.563 39.5785 51.581C42.3625 51.611 45.1765 51.2618 47.9341 50.801C50.8705 50.3102 53.7349 49.3862 56.6713 48.881C58.5073 48.5678 58.9441 48.1298 58.0441 46.445C56.4157 43.3946 53.8057 41.825 50.3749 41.591C43.6525 41.1398 39.2017 45.0158 34.5385 50.003ZM76.1989 44.5298C75.5665 40.751 73.1209 37.8926 71.1865 34.7642C70.6885 39.119 73.2961 41.879 76.1989 44.5298Z"
        fill="#22283A" />
    <path
        d="M39.4966 7.30703C39.445 4.51343 38.7118 1.94783 37.0174 -0.274569C36.8974 -0.503769 36.5542 -0.51457 36.4834 -0.24817C36.4078 0.35903 36.3838 0.975831 36.3202 1.58543C36.1702 3.23663 36.1774 4.92143 35.833 6.53183C34.0954 15.1802 26.8702 19.5722 20.449 24.6326C18.169 26.561 15.7894 28.3646 13.4302 30.1934C5.0302 36.7862 -0.990201 42.7766 0.135399 54.1418C0.437787 56.1537 1.24673 58.0557 2.4862 59.669C2.6062 59.8898 2.9338 59.909 3.0154 59.6558C3.097 59.0438 3.1066 58.4198 3.1702 57.8042C3.3082 56.1518 3.2902 54.467 3.6202 52.8542C5.1574 44.9222 11.293 40.5638 17.257 35.897C22.177 31.6706 27.6478 28.0778 32.4442 23.723C37.1494 19.4102 39.619 13.8386 39.4966 7.30703Z"
        fill="#22283A" />
    <path
        d="M42.292 32.4794C43.054 31.1594 43.6888 29.7338 44.602 28.5194C47.3944 24.8198 51.55 23.2526 55.702 21.7514C59.7256 20.2958 63.808 18.9998 67.81 17.4878C69.49 16.8566 71.0128 15.8425 72.61 15.0145C72.9928 14.8165 73.3996 14.6642 74.1292 14.3438C73.942 16.6382 73.0324 18.1909 71.38 19.0453C64.912 22.5037 57.7264 24.3698 51.052 27.3194C48.1192 28.7174 45.5956 31.0394 42.8716 32.867L42.292 32.4794Z"
        fill="#22283A" />
    <path
        d="M38.9232 71.9336C38.6712 75.3308 35.5752 75.9092 32.952 76.5584C30.624 77.15 28.2828 77.6936 25.9428 78.2384C25.5168 78.338 25.0764 78.3752 24.1152 78.5216C24.7548 77.6456 25.002 76.9688 25.4736 76.7216C27.2172 75.8204 28.9932 74.9432 30.84 74.2916C32.1504 73.8296 33.6228 73.8428 34.9728 73.4636C36.2436 73.1144 37.4472 72.5204 38.9232 71.9336Z"
        fill="#22283A" />
    <path
        d="M67.631 13.5498C66.6806 13.0698 66.1574 12.9834 65.9882 12.6906C65.531 11.8986 64.7462 10.8378 64.9802 10.221C65.2778 9.43738 66.4346 8.54098 67.2494 8.51818C68.0318 8.49178 69.2894 9.34138 69.5738 10.0962C70.553 12.6666 68.3486 16.1502 65.6438 16.527C65.0834 16.6038 64.4437 16.1358 63.8438 15.9186C64.2697 15.5382 64.6526 15.0906 65.1302 14.7942C65.7842 14.3898 66.5054 14.1006 67.631 13.5498Z"
        fill="#22283A" />
    <path
        d="M55.7514 4.83398C59.1246 6.75398 59.637 14.152 56.025 18.9292C55.977 18.1036 55.827 17.5744 55.941 17.1088C56.6538 14.1916 56.3526 11.4436 54.945 8.76038C54.1914 7.32038 54.5178 5.94158 55.7514 4.83398Z"
        fill="#22283A" />
</svg>