<svg viewBox="0 0 1440 474" fill="none" xmlns="http://www.w3.org/2000/svg">
    <g clip-path="url(#clip0_6162_1395)">
        <rect width="1440" height="474" fill="#EFF1F6" />
        <mask id="path-1-inside-1_6162_1395" fill="white">
            <path d="M-128.005 -209L1616.3 485.211L1544.89 664.637L-199.414 -29.5736L-128.005 -209Z" />
        </mask>
        <path d="M-128.005 -209L1616.3 485.211L1544.89 664.637L-199.414 -29.5736L-128.005 -209Z"
            fill="url(#paint0_linear_6162_1395)" />
        <path
            d="M-128.005 -209L-128.375 -208.071L1615.93 486.14L1616.3 485.211L1616.67 484.281L-127.635 -209.929L-128.005 -209Z"
            fill="#22283A" fill-opacity="0.01" mask="url(#path-1-inside-1_6162_1395)" />
        <mask id="path-3-inside-2_6162_1395" fill="white">
            <path d="M-199.591 -31.5176L1643.18 701.88L1571.77 881.306L-271 147.909L-199.591 -31.5176Z" />
        </mask>
        <path d="M-199.591 -31.5176L1643.18 701.88L1571.77 881.306L-271 147.909L-199.591 -31.5176Z"
            fill="url(#paint1_linear_6162_1395)" />
        <path
            d="M-199.591 -31.5176L-199.961 -30.5885L1642.81 702.809L1643.18 701.88L1643.55 700.951L-199.221 -32.4467L-199.591 -31.5176Z"
            fill="#22283A" fill-opacity="0.01" mask="url(#path-3-inside-2_6162_1395)" />
    </g>
    <defs>
        <linearGradient id="paint0_linear_6162_1395" x1="790.676" y1="160.187" x2="701.492" y2="336.728"
            gradientUnits="userSpaceOnUse">
            <stop stop-color="#22283A" stop-opacity="0.04" />
            <stop offset="1" stop-color="#22283A" stop-opacity="0" />
        </linearGradient>
        <linearGradient id="paint1_linear_6162_1395" x1="771.017" y1="358.336" x2="682.633" y2="535.37"
            gradientUnits="userSpaceOnUse">
            <stop stop-color="#22283A" stop-opacity="0.04" />
            <stop offset="1" stop-color="#22283A" stop-opacity="0" />
        </linearGradient>
        <clipPath id="clip0_6162_1395">
            <rect width="1440" height="474" fill="white" />
        </clipPath>
    </defs>
</svg>