<svg viewBox="0 0 20 20" fill="none" xmlns="http://www.w3.org/2000/svg">
    <path fill-rule="evenodd" clip-rule="evenodd"
        d="M10.0003 18.3327C14.6027 18.3327 18.3337 14.6017 18.3337 9.99935C18.3337 5.39698 14.6027 1.66602 10.0003 1.66602C5.39795 1.66602 1.66699 5.39698 1.66699 9.99935C1.66699 14.6017 5.39795 18.3327 10.0003 18.3327ZM10.6253 7.49935C10.6253 7.15417 10.3455 6.87435 10.0003 6.87435C9.65515 6.87435 9.37533 7.15417 9.37533 7.49935L9.37532 9.37437H7.50033C7.15515 9.37437 6.87533 9.65419 6.87533 9.99937C6.87533 10.3445 7.15515 10.6244 7.50033 10.6244H9.37532V12.4993C9.37532 12.8445 9.65515 13.1243 10.0003 13.1243C10.3455 13.1243 10.6253 12.8445 10.6253 12.4993L10.6253 10.6244H12.5003C12.8455 10.6244 13.1253 10.3445 13.1253 9.99937C13.1253 9.65419 12.8455 9.37437 12.5003 9.37437H10.6253V7.49935Z"
        fill="#22283A" />
</svg>