<svg viewBox="0 0 12 15" fill="none" xmlns="http://www.w3.org/2000/svg">
    <path fill-rule="evenodd" clip-rule="evenodd"
        d="M6 0C2.68629 0 0 2.73441 0 6.10747C0 9.4541 1.91499 13.3593 4.9028 14.7558C5.59931 15.0814 6.40069 15.0814 7.0972 14.7558C10.085 13.3593 12 9.4541 12 6.10747C12 2.73441 9.31371 0 6 0ZM6 3.5625C6.31066 3.5625 6.5625 3.81434 6.5625 4.125V5.4375H7.875C8.18566 5.4375 8.4375 5.68934 8.4375 6C8.4375 6.31066 8.18566 6.5625 7.875 6.5625H6.5625V7.875C6.5625 8.18566 6.31066 8.4375 6 8.4375C5.68934 8.4375 5.4375 8.18566 5.4375 7.875V6.5625H4.125C3.81434 6.5625 3.5625 6.31066 3.5625 6C3.5625 5.68934 3.81434 5.4375 4.125 5.4375H5.4375V4.125C5.4375 3.81434 5.68934 3.5625 6 3.5625Z"
        fill="currentColor" />
</svg>