<svg viewBox="0 0 24 24" fill="none" xmlns="http://www.w3.org/2000/svg">
    <path
        d="M9 13.5H11.25V15.375C11.25 15.6734 11.1315 15.9595 10.9205 16.1705C10.7095 16.3815 10.4234 16.5 10.125 16.5H9V13.5Z"
        fill="#F04678" />
    <path
        d="M7.125 21.75L6.375 13.5H9L9.51225 19.1359C9.54242 19.4676 9.50313 19.802 9.39687 20.1177C9.29061 20.4333 9.11972 20.7234 8.89511 20.9694C8.67049 21.2153 8.39707 21.4118 8.0923 21.5462C7.78753 21.6806 7.45809 21.75 7.125 21.75Z"
        fill="#6FA6FF" />
    <path
        d="M19.5 3.75C19.5 3.33579 19.1642 3 18.75 3C18.3358 3 18 3.33579 18 3.75V17.25C18 17.6642 18.3358 18 18.75 18C19.1642 18 19.5 17.6642 19.5 17.25V3.75Z"
        fill="#EBEBF5" />
    <path d="M9 13.5L18 16.875V4.125L9 7.5V13.5Z" fill="#6FA6FF" />
    <path
        d="M20.4323 13.5023L19.5 13.875V7.125L20.4323 7.49775C20.7106 7.60912 20.9491 7.80132 21.1172 8.04957C21.2852 8.29782 21.375 8.59073 21.375 8.8905V12.1095C21.375 12.4093 21.2852 12.7022 21.1172 12.9504C20.9491 13.1987 20.7106 13.3909 20.4323 13.5023Z"
        fill="#F04678" />
    <path
        d="M5.625 7.5H9V13.5H5.625C5.32663 13.5 5.04048 13.3815 4.8295 13.1705C4.61853 12.9595 4.5 12.6734 4.5 12.375V8.625C4.5 8.32663 4.61853 8.04048 4.8295 7.8295C5.04048 7.61853 5.32663 7.5 5.625 7.5Z"
        fill="#EF5E8E" />
    <path d="M9 13.5L18 16.875V5.25L9 8.625V13.5Z" fill="#678EFA" />
    <path
        d="M5.625 8.625H9V13.5H5.625C5.32663 13.5 5.04048 13.3815 4.8295 13.1705C4.61853 12.9595 4.5 12.6734 4.5 12.375V9.75C4.5 9.45163 4.61853 9.16548 4.8295 8.9545C5.04048 8.74353 5.32663 8.625 5.625 8.625Z"
        fill="#F04678" />
    <path
        d="M4.5 12.375L3.56813 12.1421C3.40581 12.1016 3.26172 12.0079 3.15877 11.876C3.05583 11.7441 2.99994 11.5816 3 11.4142V9.58575C2.99994 9.41844 3.05583 9.25591 3.15877 9.12402C3.26172 8.99213 3.40581 8.89845 3.56813 8.85788L4.5 8.625V12.375Z"
        fill="#EBEBF5" />
    <path
        d="M4.5 12.375L3.56813 12.1421C3.40581 12.1016 3.26172 12.0079 3.15877 11.876C3.05583 11.7441 2.99994 11.5816 3 11.4142V10.7108C2.99994 10.5434 3.05583 10.3809 3.15877 10.249C3.26172 10.1171 3.40581 10.0234 3.56813 9.98288L4.5 9.75V12.375Z"
        fill="#E1E1EC" />
    <path
        d="M7.875 9.375H9V11.625H7.875C7.57663 11.625 7.29048 11.5065 7.0795 11.2955C6.86853 11.0845 6.75 10.7984 6.75 10.5C6.75 10.2016 6.86853 9.91548 7.0795 9.7045C7.29048 9.49353 7.57663 9.375 7.875 9.375Z"
        fill="#EBEBF5" />
    <path
        d="M9.51225 19.1359L9 13.5H7.5L8.22563 21.4796C8.64887 21.2612 8.99736 20.9216 9.22655 20.5041C9.45574 20.0866 9.55521 19.6102 9.51225 19.1359Z"
        fill="#678EFA" />
</svg>