<svg viewBox="0 0 30 30" fill="none" xmlns="http://www.w3.org/2000/svg">
    <g clip-path="url(#clip0_6490_12799)">
        <path
            d="M20.3041 26.4391C20.3929 26.4469 20.4808 26.4508 20.5678 26.4508C20.919 26.4525 21.2671 26.3848 21.5922 26.2516C21.9172 26.1185 22.2128 25.9225 22.462 25.6749L29.5995 18.7684C29.64 18.7292 29.6756 18.6853 29.7057 18.6376C29.9411 18.2637 30.0401 17.82 29.9859 17.3815C29.9317 16.943 29.7276 16.5368 29.4082 16.2315C29.0888 15.9262 28.6738 15.7407 28.2333 15.7064C27.7928 15.672 27.354 15.791 26.9912 16.0431C26.9839 16.0481 26.9766 16.0534 26.9695 16.0587L20.8443 20.6654C20.5923 20.8628 20.2755 20.9586 19.9565 20.9338L13.9576 20.5869C13.9478 20.5859 13.9383 20.5828 13.9297 20.578C13.9212 20.5732 13.9137 20.5667 13.9077 20.5588C13.8976 20.5472 13.8899 20.5337 13.885 20.5191C13.8801 20.5045 13.8781 20.4891 13.8792 20.4738C13.8846 20.4085 13.9798 20.3795 14.0466 20.3795H14.0479L19.2803 20.4125C21.1448 20.5578 21.4431 19.4845 21.4901 19.1505C21.6383 18.0989 20.5974 16.9076 19.3062 16.6512C19.2932 16.6487 19.2802 16.6465 19.2671 16.6446L11.4417 15.5454C11.0017 15.4794 10.5522 15.5251 10.1345 15.6783L5.99954 17.1512L5.8636 16.3558C5.84805 16.2648 5.81473 16.1777 5.76553 16.0995C5.71633 16.0214 5.65222 15.9537 5.57687 15.9004C5.50151 15.847 5.41638 15.809 5.32633 15.7885C5.23629 15.7681 5.1431 15.7655 5.05208 15.7811L0.584773 16.5445C0.493729 16.5601 0.406639 16.5934 0.32848 16.6426C0.250321 16.6918 0.182623 16.7559 0.129255 16.8313C0.0758872 16.9067 0.0378942 16.9919 0.0174467 17.0819C-0.00300078 17.172 -0.00550205 17.2652 0.0100858 17.3563L1.79304 27.7899C1.80847 27.881 1.84173 27.9681 1.8909 28.0463C1.94006 28.1245 2.00418 28.1923 2.07956 28.2456C2.15495 28.299 2.24012 28.337 2.33021 28.3574C2.4203 28.3778 2.51353 28.3803 2.60456 28.3646L7.07233 27.6012C7.25602 27.5696 7.41969 27.4665 7.52736 27.3144C7.63503 27.1622 7.6779 26.9736 7.64655 26.7899L7.50593 25.9674L8.96743 25.4362L20.3041 26.4391ZM3.06095 26.8602L1.51471 17.8122L4.59587 17.286L6.1421 26.3334L3.06095 26.8602ZM8.63403 24.0612L7.26569 24.5584L6.2403 18.5584L10.6066 17.0031C10.8107 16.9267 11.0311 16.9043 11.2464 16.9381L19.0501 18.0344C19.7094 18.174 20.0996 18.7492 20.0994 18.9367C20.0371 18.9759 19.8198 19.0471 19.3702 19.0092C19.3521 19.0077 19.3338 19.0069 19.3157 19.0067L14.0567 18.9735C13.2226 18.9711 12.5443 19.5627 12.4778 20.3563C12.4614 20.5587 12.4855 20.7624 12.5486 20.9554C12.6117 21.1485 12.7126 21.327 12.8455 21.4806C12.9741 21.6307 13.1317 21.7533 13.3088 21.841C13.4859 21.9287 13.679 21.9797 13.8763 21.991L19.8752 22.3379C20.5266 22.3818 21.1715 22.1868 21.6895 21.7895L27.8019 17.1922C27.8942 17.1308 28.0041 17.1012 28.1148 17.1079C28.2256 17.1146 28.3311 17.1572 28.4154 17.2293C28.4997 17.3014 28.5582 17.399 28.582 17.5073C28.6058 17.6157 28.5936 17.7288 28.5473 17.8296L21.4841 24.6644C21.348 24.8028 21.1822 24.9085 20.9992 24.9732C20.8162 25.038 20.6209 25.0603 20.4281 25.0384L8.9362 24.0214C8.8338 24.0124 8.73066 24.0258 8.63403 24.0609V24.0612ZM15.2664 6.42221C15.1047 6.4519 14.9585 6.53733 14.8532 6.66365C14.748 6.78997 14.6903 6.94919 14.6903 7.11361V9.265C14.6903 9.42944 14.748 9.58866 14.8533 9.71498C14.9585 9.8413 15.1048 9.92673 15.2665 9.95641L16.1969 10.1272C16.2314 10.2171 16.2682 10.3059 16.3074 10.3937L15.7702 11.1725C15.6768 11.3078 15.6338 11.4717 15.6487 11.6355C15.6636 11.7993 15.7355 11.9527 15.8518 12.0689L17.3731 13.5905C17.4894 13.7068 17.6428 13.7787 17.8066 13.7936C17.9704 13.8085 18.1342 13.7655 18.2696 13.6721L19.0484 13.1349C19.1361 13.174 19.2249 13.2108 19.3148 13.2454L19.4857 14.1758C19.5153 14.3375 19.6008 14.4837 19.7271 14.589C19.8534 14.6943 20.0126 14.7519 20.1771 14.752H22.3285C22.4929 14.7519 22.6521 14.6943 22.7785 14.589C22.9048 14.4837 22.9902 14.3375 23.0199 14.1758L23.1908 13.2454C23.2806 13.2109 23.3694 13.1741 23.4572 13.1349L24.236 13.6721C24.3713 13.7655 24.5352 13.8085 24.699 13.7936C24.8628 13.7787 25.0162 13.7068 25.1324 13.5905L26.6537 12.0692C26.77 11.9529 26.8419 11.7996 26.8568 11.6358C26.8717 11.472 26.8287 11.3081 26.7353 11.1728L26.1982 10.394C26.2372 10.3062 26.274 10.2173 26.3085 10.1275L27.239 9.9567C27.4007 9.92702 27.5469 9.84159 27.6522 9.71527C27.7575 9.58895 27.8151 9.42973 27.8152 9.26529V7.11408C27.8151 6.94965 27.7575 6.79044 27.6522 6.66412C27.5469 6.5378 27.4007 6.45237 27.239 6.42268L26.3087 6.25135C26.2743 6.1615 26.2375 6.0727 26.1983 5.98492L26.7354 5.20615C26.8288 5.07078 26.8718 4.90694 26.8569 4.74315C26.842 4.57935 26.7701 4.42597 26.6538 4.30967L25.1326 2.78846C25.0163 2.67215 24.8629 2.60029 24.6991 2.58538C24.5353 2.57046 24.3715 2.61344 24.2361 2.70684L23.4573 3.24402C23.3695 3.20496 23.2807 3.16814 23.1909 3.13357L23.02 2.20311C22.9903 2.04138 22.9049 1.89518 22.7786 1.78991C22.6523 1.68465 22.493 1.62699 22.3286 1.62695H20.1771C20.0126 1.62699 19.8534 1.68465 19.7271 1.78991C19.6008 1.89518 19.5153 2.04138 19.4857 2.20311L19.3148 3.13357C19.2249 3.16795 19.1361 3.20477 19.0484 3.24402L18.2696 2.70684C18.1342 2.61344 17.9704 2.57046 17.8066 2.58538C17.6428 2.60029 17.4894 2.67215 17.3731 2.78846L15.8518 4.30973C15.7355 4.42602 15.6636 4.57941 15.6487 4.74321C15.6338 4.907 15.6768 5.07083 15.7702 5.20621L16.3074 5.98498C16.2683 6.07275 16.2315 6.16156 16.1969 6.25141L15.2664 6.42221ZM16.8575 7.55986C16.9857 7.53631 17.1048 7.47758 17.2016 7.39024C17.2984 7.30289 17.3689 7.19036 17.4055 7.06522C17.4867 6.78701 17.598 6.51847 17.7374 6.26436C17.8002 6.15003 17.8299 6.02049 17.8232 5.89024C17.8166 5.75998 17.7739 5.63414 17.6998 5.52678L17.2604 4.88986L17.9532 4.19705L18.5901 4.6365C18.6975 4.71055 18.8233 4.75329 18.9535 4.75993C19.0838 4.76657 19.2133 4.73686 19.3276 4.67412C19.5817 4.53469 19.8503 4.42337 20.1285 4.34213C20.2536 4.30563 20.3662 4.23505 20.4536 4.13827C20.5409 4.04149 20.5996 3.92233 20.6232 3.7941L20.7629 3.03338H21.7427L21.8824 3.7941C21.9059 3.92233 21.9646 4.04149 22.052 4.13827C22.1394 4.23505 22.2519 4.30563 22.3771 4.34213C22.6553 4.42337 22.9239 4.5347 23.178 4.67412C23.2923 4.73686 23.4218 4.76657 23.5521 4.75993C23.6823 4.75329 23.8082 4.71055 23.9155 4.6365L24.5524 4.19705L25.2452 4.88986L24.8058 5.52678C24.7317 5.63413 24.689 5.75996 24.6824 5.8902C24.6757 6.02044 24.7054 6.14997 24.7682 6.2643C24.9076 6.51841 25.0189 6.78694 25.1001 7.06516C25.1366 7.19032 25.2072 7.30286 25.304 7.39022C25.4007 7.47759 25.5199 7.53632 25.6481 7.55986L26.4089 7.69955V8.67941L25.6483 8.81916C25.5201 8.8427 25.4009 8.90142 25.3042 8.98877C25.2074 9.07612 25.1368 9.18866 25.1003 9.31381C25.0191 9.59202 24.9078 9.86054 24.7683 10.1146C24.7056 10.2289 24.6758 10.3585 24.6825 10.4888C24.6891 10.619 24.7318 10.7449 24.8059 10.8522L25.2454 11.4892L24.5525 12.182L23.9156 11.7426C23.8083 11.6685 23.6825 11.6258 23.5522 11.6191C23.422 11.6125 23.2924 11.6422 23.1781 11.7049C22.924 11.8444 22.6554 11.9557 22.3772 12.0369C22.252 12.0734 22.1395 12.144 22.0521 12.2408C21.9648 12.3375 21.906 12.4567 21.8825 12.5849L21.7429 13.3456H20.7629L20.6232 12.5849C20.5997 12.4567 20.5409 12.3376 20.4536 12.2408C20.3663 12.144 20.2537 12.0734 20.1286 12.0369C19.8504 11.9557 19.5818 11.8444 19.3277 11.705C19.2133 11.6422 19.0838 11.6125 18.9536 11.6191C18.8233 11.6258 18.6975 11.6685 18.5901 11.7426L17.9532 12.182L17.2604 11.4892L17.6998 10.8522C17.7739 10.7449 17.8166 10.6191 17.8232 10.4888C17.8299 10.3586 17.8001 10.229 17.7374 10.1147C17.598 9.86063 17.4867 9.59209 17.4055 9.31387C17.369 9.18871 17.2984 9.07617 17.2016 8.98881C17.1049 8.90145 16.9857 8.84271 16.8575 8.81916L16.0968 8.67953V7.69955L16.8575 7.55986ZM21.253 11.1713C21.8427 11.1714 22.4192 10.9965 22.9096 10.6688C23.4 10.3412 23.7822 9.87548 24.0079 9.33062C24.2336 8.78575 24.2927 8.18619 24.1776 7.60775C24.0626 7.02932 23.7786 6.49799 23.3616 6.08096C22.9445 5.66392 22.4132 5.37992 21.8348 5.26486C21.2563 5.1498 20.6568 5.20885 20.1119 5.43454C19.567 5.66023 19.1013 6.04242 18.7737 6.5328C18.446 7.02317 18.2711 7.59969 18.2711 8.18945C18.272 8.97999 18.5864 9.7379 19.1454 10.2969C19.7044 10.8559 20.4622 11.1704 21.2528 11.1713H21.253ZM21.253 6.61381C21.5646 6.6138 21.8692 6.7062 22.1284 6.87932C22.3875 7.05245 22.5894 7.29853 22.7087 7.58644C22.828 7.87435 22.8592 8.19116 22.7984 8.49681C22.7376 8.80246 22.5875 9.08322 22.3672 9.30358C22.1468 9.52394 21.8661 9.67402 21.5604 9.73482C21.2548 9.79562 20.938 9.76442 20.6501 9.64516C20.3621 9.52591 20.1161 9.32396 19.9429 9.06484C19.7698 8.80573 19.6774 8.50109 19.6774 8.18945C19.6778 7.77175 19.844 7.37128 20.1393 7.0759C20.4346 6.78052 20.8351 6.61434 21.2528 6.61381H21.253Z"
            fill="#22283A" />
    </g>
    <defs>
        <clipPath id="clip0_6490_12799">
            <rect width="30" height="30" fill="white" />
        </clipPath>
    </defs>
</svg>