<svg viewBox="0 0 20 20" fill="none" xmlns="http://www.w3.org/2000/svg">
    <path fill-rule="evenodd" clip-rule="evenodd"
        d="M12.5 1.66797H14.1666C15.738 1.66797 16.5236 1.66797 17.0118 2.15612C17.5 2.64428 17.5 3.42995 17.5 5.0013V17.7096H18.3333C18.6785 17.7096 18.9583 17.9895 18.9583 18.3346C18.9583 18.6798 18.6785 18.9596 18.3333 18.9596H1.66663C1.32145 18.9596 1.04163 18.6798 1.04163 18.3346C1.04163 17.9895 1.32145 17.7096 1.66663 17.7096H2.49996V7.5013C2.49996 5.92995 2.49996 5.14428 2.98811 4.65612C3.47627 4.16797 4.26194 4.16797 5.83329 4.16797H9.16663C10.738 4.16797 11.5236 4.16797 12.0118 4.65612C12.5 5.14428 12.5 5.92995 12.5 7.5013V17.7096H13.75V7.5013L13.75 7.42673C13.7501 6.70537 13.7501 6.04398 13.6778 5.50596C13.5981 4.91349 13.4107 4.28728 12.8957 3.77224C12.3806 3.2572 11.7544 3.06979 11.162 2.99013C10.6315 2.91882 9.98116 2.91789 9.27163 2.91796C9.34188 2.59526 9.45912 2.35179 9.65478 2.15612C10.1429 1.66797 10.9286 1.66797 12.5 1.66797ZM4.37496 6.66797C4.37496 6.32279 4.65478 6.04297 4.99996 6.04297H9.99996C10.3451 6.04297 10.625 6.32279 10.625 6.66797C10.625 7.01315 10.3451 7.29297 9.99996 7.29297H4.99996C4.65478 7.29297 4.37496 7.01315 4.37496 6.66797ZM4.37496 9.16797C4.37496 8.82279 4.65478 8.54297 4.99996 8.54297H9.99996C10.3451 8.54297 10.625 8.82279 10.625 9.16797C10.625 9.51315 10.3451 9.79297 9.99996 9.79297H4.99996C4.65478 9.79297 4.37496 9.51315 4.37496 9.16797ZM4.37496 11.668C4.37496 11.3228 4.65478 11.043 4.99996 11.043H9.99996C10.3451 11.043 10.625 11.3228 10.625 11.668C10.625 12.0131 10.3451 12.293 9.99996 12.293H4.99996C4.65478 12.293 4.37496 12.0131 4.37496 11.668ZM7.49996 15.2096C7.84514 15.2096 8.12496 15.4895 8.12496 15.8346V17.7096H6.87496V15.8346C6.87496 15.4895 7.15478 15.2096 7.49996 15.2096Z"
        fill="currentColor" />
</svg>