<svg viewBox="0 0 18 18" fill="none" xmlns="http://www.w3.org/2000/svg">
<path fill-rule="evenodd" clip-rule="evenodd" d="M1.5 4.97561C1.5 3.05608 3.05608 1.5 4.97561 1.5C6.89514 1.5 8.45122 3.05608 8.45122 4.97561C8.45122 6.89514 6.89514 8.45122 4.97561 8.45122C3.05608 8.45122 1.5 6.89514 1.5 4.97561Z" fill="#999999"/>
<path fill-rule="evenodd" clip-rule="evenodd" d="M9.54878 13.0244C9.54878 11.1049 11.1049 9.54878 13.0244 9.54878C14.9439 9.54878 16.5 11.1049 16.5 13.0244C16.5 14.9439 14.9439 16.5 13.0244 16.5C11.1049 16.5 9.54878 14.9439 9.54878 13.0244Z" fill="#999999"/>
<path d="M1.5 13.125C1.5 11.534 1.5 10.7385 1.99426 10.2443C2.48851 9.75 3.28401 9.75 4.875 9.75C6.46599 9.75 7.26149 9.75 7.75574 10.2443C8.25 10.7385 8.25 11.534 8.25 13.125C8.25 14.716 8.25 15.5115 7.75574 16.0057C7.26149 16.5 6.46599 16.5 4.875 16.5C3.28401 16.5 2.48851 16.5 1.99426 16.0057C1.5 15.5115 1.5 14.716 1.5 13.125Z" fill="#999999"/>
<path d="M9.75 4.875C9.75 3.28401 9.75 2.48851 10.2443 1.99426C10.7385 1.5 11.534 1.5 13.125 1.5C14.716 1.5 15.5115 1.5 16.0057 1.99426C16.5 2.48851 16.5 3.28401 16.5 4.875C16.5 6.46599 16.5 7.26149 16.0057 7.75574C15.5115 8.25 14.716 8.25 13.125 8.25C11.534 8.25 10.7385 8.25 10.2443 7.75574C9.75 7.26149 9.75 6.46599 9.75 4.875Z" fill="#999999"/>
</svg>
