<svg viewBox="0 0 20 20" fill="none" xmlns="http://www.w3.org/2000/svg">
    <path fill-rule="evenodd" clip-rule="evenodd"
        d="M4.37533 8.38014V6.66797C4.37533 3.56137 6.89372 1.04297 10.0003 1.04297C13.1069 1.04297 15.6253 3.56137 15.6253 6.66797V8.38014C16.5543 8.44952 17.1592 8.62468 17.6014 9.06687C18.3337 9.7991 18.3337 10.9776 18.3337 13.3346C18.3337 15.6917 18.3337 16.8702 17.6014 17.6024C16.8692 18.3346 15.6907 18.3346 13.3337 18.3346H6.66699C4.30997 18.3346 3.13146 18.3346 2.39923 17.6024C1.66699 16.8702 1.66699 15.6917 1.66699 13.3346C1.66699 10.9776 1.66699 9.7991 2.39923 9.06687C2.84142 8.62468 3.44636 8.44952 4.37533 8.38014ZM5.62533 6.66797C5.62533 4.25172 7.58408 2.29297 10.0003 2.29297C12.4166 2.29297 14.3753 4.25172 14.3753 6.66797V8.33761C14.0561 8.33464 13.7099 8.33464 13.3337 8.33464H6.66699C6.29073 8.33464 5.9445 8.33464 5.62533 8.33761V6.66797ZM6.66699 14.168C7.12723 14.168 7.50033 13.7949 7.50033 13.3346C7.50033 12.8744 7.12723 12.5013 6.66699 12.5013C6.20675 12.5013 5.83366 12.8744 5.83366 13.3346C5.83366 13.7949 6.20675 14.168 6.66699 14.168ZM10.0003 14.168C10.4606 14.168 10.8337 13.7949 10.8337 13.3346C10.8337 12.8744 10.4606 12.5013 10.0003 12.5013C9.54009 12.5013 9.16699 12.8744 9.16699 13.3346C9.16699 13.7949 9.54009 14.168 10.0003 14.168ZM14.167 13.3346C14.167 13.7949 13.7939 14.168 13.3337 14.168C12.8734 14.168 12.5003 13.7949 12.5003 13.3346C12.5003 12.8744 12.8734 12.5013 13.3337 12.5013C13.7939 12.5013 14.167 12.8744 14.167 13.3346Z"
        fill="currentColor" />
</svg>