<svg viewBox="0 0 179.297 158.209" fill="none" xmlns="http://www.w3.org/2000/svg">
<g id="Group">
<path id="Vector" d="M158.003 47.4606H152.93L58.0078 100.195V121.088C58.0078 129.937 65.1797 137.109 74.0285 137.109H147.656L174.023 152.929V63.4813C174.023 54.6325 166.852 47.4606 158.003 47.4606Z" fill="#EFF1F6"/>
<g id="Group_2">
<path id="Vector_2" d="M152.93 100.195C147.929 100.195 45.4834 100.195 36.9141 100.195L5.27344 121.289V21.2938C5.27344 12.445 12.4453 5.27309 21.2941 5.27309H136.909C145.758 5.27309 152.93 12.445 152.93 21.2938V100.195Z" fill="white"/>
<path id="Vector_3" d="M36.9141 63.2809C42.7389 63.2809 47.4609 58.5589 47.4609 52.734C47.4609 46.9091 42.7389 42.1871 36.9141 42.1871C31.0892 42.1871 26.3672 46.9091 26.3672 52.734C26.3672 58.5589 31.0892 63.2809 36.9141 63.2809Z" fill="white"/>
<path id="Vector_4" d="M79.1016 63.2809C84.9264 63.2809 89.6484 58.5589 89.6484 52.734C89.6484 46.9091 84.9264 42.1871 79.1016 42.1871C73.2767 42.1871 68.5547 46.9091 68.5547 52.734C68.5547 58.5589 73.2767 63.2809 79.1016 63.2809Z" fill="white"/>
<path id="Vector_5" d="M121.289 63.2809C127.114 63.2809 131.836 58.5589 131.836 52.734C131.836 46.9091 127.114 42.1871 121.289 42.1871C115.464 42.1871 110.742 46.9091 110.742 52.734C110.742 58.5589 115.464 63.2809 121.289 63.2809Z" fill="white"/>
</g>
<g id="Group_3">
<path id="Vector_6" d="M79.1016 68.5543C87.8249 68.5543 94.9219 61.4573 94.9219 52.734C94.9219 44.0107 87.8249 36.9137 79.1016 36.9137C70.3782 36.9137 63.2812 44.0107 63.2812 52.734C63.2812 61.4573 70.3782 68.5543 79.1016 68.5543ZM79.1016 47.4606C82.0093 47.4606 84.375 49.8262 84.375 52.734C84.375 55.6418 82.0093 58.0075 79.1016 58.0075C76.1938 58.0075 73.8281 55.6418 73.8281 52.734C73.8281 49.8262 76.1938 47.4606 79.1016 47.4606Z" fill="#7E8CB4"/>
<path id="Vector_7" d="M36.9141 36.9137C28.1907 36.9137 21.0938 44.0107 21.0938 52.734C21.0938 61.4573 28.1907 68.5543 36.9141 68.5543C45.6374 68.5543 52.7344 61.4573 52.7344 52.734C52.7344 44.0107 45.6374 36.9137 36.9141 36.9137ZM36.9141 58.0075C34.0063 58.0075 31.6406 55.6418 31.6406 52.734C31.6406 49.8262 34.0063 47.4606 36.9141 47.4606C39.8218 47.4606 42.1875 49.8262 42.1875 52.734C42.1875 55.6418 39.8218 58.0075 36.9141 58.0075Z" fill="#7E8CB4"/>
<path id="Vector_8" d="M121.289 68.5543C130.012 68.5543 137.109 61.4573 137.109 52.734C137.109 44.0107 130.012 36.9137 121.289 36.9137C112.566 36.9137 105.469 44.0107 105.469 52.734C105.469 61.4573 112.566 68.5543 121.289 68.5543ZM121.289 47.4606C124.197 47.4606 126.562 49.8262 126.562 52.734C126.562 55.6418 124.197 58.0075 121.289 58.0075C118.381 58.0075 116.016 55.6418 116.016 52.734C116.016 49.8262 118.381 47.4606 121.289 47.4606Z" fill="#7E8CB4"/>
<path id="Vector_9" d="M158.203 42.1924V21.2941C158.203 9.55266 148.65 9.7035e-09 136.909 9.7035e-09H21.2941C9.55266 -0.000351553 0 9.5523 0 21.2941V121.289C0 125.495 4.70004 128.01 8.19844 125.677L38.5109 105.469H52.7344V121.089C52.7344 132.83 62.287 142.383 74.0285 142.383H146.196L171.31 157.451C174.821 159.557 179.297 157.023 179.297 152.93V63.4816C179.297 51.8073 169.852 42.3011 158.203 42.1924ZM36.9141 94.9215C35.8731 94.9215 34.8553 95.2298 33.9891 95.8075L10.5469 111.435V21.2941C10.5469 15.3682 15.3682 10.5469 21.2941 10.5469H136.909C142.835 10.5469 147.656 15.3682 147.656 21.2941V94.9219H36.9141V94.9215ZM168.75 143.615L150.37 132.587C149.55 132.096 148.612 131.836 147.656 131.836H74.0285C68.1026 131.836 63.2812 127.014 63.2812 121.088V105.468H152.93C155.842 105.468 158.203 103.107 158.203 100.195V52.7393C164.037 52.8469 168.75 57.6229 168.75 63.4816V143.615Z" fill="#7E8CB4"/>
</g>
</g>
</svg>
