<svg viewBox="0 0 28 28" fill="none" xmlns="http://www.w3.org/2000/svg">
    <rect x="0.5" y="0.5" width="27" height="27" rx="13.5" fill="white" />
    <rect x="0.5" y="0.5" width="27" height="27" rx="13.5" stroke="#389441" />
    <circle cx="14" cy="14" r="6" fill="white" />
    <path
        d="M14 3.4375C11.9109 3.4375 9.86879 4.05698 8.13179 5.2176C6.3948 6.37822 5.04098 8.02786 4.24153 9.95791C3.44208 11.8879 3.2329 14.0117 3.64046 16.0606C4.04802 18.1096 5.054 19.9916 6.53119 21.4688C8.00838 22.946 9.89044 23.952 11.9394 24.3595C13.9883 24.7671 16.1121 24.5579 18.0421 23.7585C19.9721 22.959 21.6218 21.6052 22.7824 19.8682C23.943 18.1312 24.5625 16.0891 24.5625 14C24.5595 11.1996 23.4458 8.51466 21.4656 6.53445C19.4853 4.55424 16.8004 3.44046 14 3.4375ZM18.6373 12.1373L12.9498 17.8248C12.8744 17.9004 12.7848 17.9603 12.6861 18.0012C12.5875 18.0421 12.4818 18.0631 12.375 18.0631C12.2682 18.0631 12.1625 18.0421 12.0639 18.0012C11.9652 17.9603 11.8756 17.9004 11.8002 17.8248L9.36266 15.3873C9.2102 15.2349 9.12455 15.0281 9.12455 14.8125C9.12455 14.5969 9.2102 14.3901 9.36266 14.2377C9.51512 14.0852 9.7219 13.9995 9.9375 13.9995C10.1531 13.9995 10.3599 14.0852 10.5123 14.2377L12.375 16.1013L17.4877 10.9877C17.5631 10.9122 17.6528 10.8523 17.7514 10.8114C17.85 10.7706 17.9557 10.7495 18.0625 10.7495C18.1693 10.7495 18.275 10.7706 18.3736 10.8114C18.4722 10.8523 18.5619 10.9122 18.6373 10.9877C18.7128 11.0631 18.7727 11.1528 18.8136 11.2514C18.8544 11.35 18.8755 11.4557 18.8755 11.5625C18.8755 11.6693 18.8544 11.775 18.8136 11.8736C18.7727 11.9722 18.7128 12.0619 18.6373 12.1373Z"
        fill="#389441" />
</svg>