<svg viewBox="0 0 14 14" fill="none" xmlns="http://www.w3.org/2000/svg">
    <path
        d="M11.4015 10.4735C11.5248 10.5968 11.5941 10.764 11.5941 10.9383C11.5941 11.1127 11.5248 11.2799 11.4015 11.4032C11.2782 11.5265 11.111 11.5957 10.9367 11.5957C10.7623 11.5957 10.5951 11.5265 10.4718 11.4032L6.99973 7.92997L3.52653 11.4021C3.40324 11.5254 3.23604 11.5946 3.06169 11.5946C2.88734 11.5946 2.72013 11.5254 2.59684 11.4021C2.47356 11.2788 2.4043 11.1116 2.4043 10.9372C2.4043 10.7629 2.47356 10.5957 2.59684 10.4724L6.07004 7.00028L2.59794 3.52708C2.47465 3.40379 2.40539 3.23658 2.40539 3.06223C2.40539 2.88788 2.47465 2.72067 2.59794 2.59739C2.72122 2.4741 2.88843 2.40484 3.06278 2.40484C3.23713 2.40484 3.40434 2.4741 3.52762 2.59739L6.99973 6.07059L10.4729 2.59684C10.5962 2.47356 10.7634 2.4043 10.9378 2.4043C11.1121 2.4043 11.2793 2.47356 11.4026 2.59684C11.5259 2.72013 11.5952 2.88733 11.5952 3.06169C11.5952 3.23604 11.5259 3.40324 11.4026 3.52653L7.92942 7.00028L11.4015 10.4735Z"
        fill="#666666" />
</svg>