<svg viewBox="0 0 20 20" fill="none" xmlns="http://www.w3.org/2000/svg">
    <path
        d="M12.9635 12.1231L12.5839 12.5227C12.5839 12.5227 11.6818 13.4725 9.21927 10.8799C6.75676 8.28736 7.65892 7.33756 7.65892 7.33756L7.89793 7.08593C8.48673 6.46604 8.54223 5.4708 8.02853 4.74425L6.97771 3.25801C6.3419 2.35875 5.1133 2.23996 4.38454 3.0072L3.07654 4.38428C2.71519 4.76471 2.47304 5.25788 2.50241 5.80495C2.57753 7.20455 3.1756 10.2159 6.5128 13.7293C10.0518 17.4552 13.3724 17.6033 14.7302 17.4692C15.1597 17.4269 15.5333 17.1952 15.8343 16.8783L17.0181 15.632C17.8171 14.7908 17.5918 13.3485 16.5694 12.76L14.9774 11.8436C14.306 11.4572 13.4881 11.5707 12.9635 12.1231Z"
        fill="#22283A" />
    <path
        d="M11.0499 1.56783C11.1051 1.22709 11.4272 0.995941 11.7679 1.05111C11.789 1.05514 11.8569 1.06783 11.8924 1.07575C11.9635 1.09158 12.0627 1.11596 12.1864 1.15198C12.4337 1.22402 12.7792 1.34269 13.1939 1.5328C14.0241 1.91343 15.129 2.57927 16.2755 3.72577C17.422 4.87227 18.0878 5.97711 18.4684 6.80735C18.6586 7.22203 18.7772 7.56753 18.8493 7.81485C18.8853 7.93852 18.9097 8.03771 18.9255 8.10881C18.9334 8.14437 18.9392 8.17292 18.9432 8.19401L18.948 8.22001C19.0032 8.56075 18.7742 8.89618 18.4334 8.95135C18.0937 9.00635 17.7736 8.77633 17.717 8.43718C17.7153 8.42808 17.7105 8.40361 17.7054 8.38054C17.6951 8.33439 17.6773 8.2612 17.6491 8.16441C17.5927 7.97079 17.4948 7.68302 17.3322 7.32828C17.0073 6.6197 16.4231 5.64121 15.3916 4.60965C14.36 3.5781 13.3815 2.99394 12.673 2.66908C12.3182 2.50645 12.0305 2.40851 11.8368 2.35211C11.74 2.32392 11.6184 2.29599 11.5722 2.28572C11.2331 2.2292 10.9949 1.9076 11.0499 1.56783Z"
        fill="#22283A" />
    <path fill-rule="evenodd" clip-rule="evenodd"
        d="M11.2384 4.44238C11.3333 4.11049 11.6792 3.9183 12.0111 4.01313L11.8394 4.61408C12.0111 4.01313 12.0111 4.01313 12.0111 4.01313L12.0123 4.01348L12.0136 4.01384L12.0163 4.01466L12.0228 4.01658L12.0393 4.02172C12.0519 4.02574 12.0676 4.03097 12.0863 4.03761C12.1237 4.05089 12.1732 4.06978 12.2338 4.09578C12.3552 4.14781 12.5211 4.22816 12.7249 4.34875C13.1328 4.59016 13.6896 4.99114 14.3437 5.64528C14.9979 6.29942 15.3989 6.85625 15.6403 7.26413C15.7608 7.46789 15.8412 7.63378 15.8932 7.75518C15.9192 7.81586 15.9381 7.86532 15.9514 7.90275C15.958 7.92146 15.9633 7.93715 15.9673 7.94971L15.9724 7.9662L15.9744 7.97266L15.9752 7.97544L15.9755 7.97672C15.9755 7.97672 15.9759 7.97792 15.3749 8.14962L15.9759 7.97792C16.0707 8.30981 15.8785 8.65574 15.5466 8.75057C15.2175 8.84459 14.8747 8.65646 14.7764 8.32974L14.7734 8.32076C14.7689 8.30824 14.7597 8.28358 14.7443 8.24758C14.7135 8.17564 14.6575 8.05794 14.5645 7.90078C14.3787 7.58683 14.0431 7.11246 13.4598 6.52916C12.8766 5.94587 12.4022 5.61028 12.0882 5.42447C11.9311 5.33146 11.8134 5.27555 11.7414 5.24471C11.7054 5.22928 11.6808 5.22009 11.6682 5.21565L11.6593 5.21257C11.3326 5.11433 11.1444 4.77146 11.2384 4.44238Z"
        fill="#22283A" />
</svg>