<svg viewBox="0 0 20 20" fill="none" xmlns="http://www.w3.org/2000/svg">
    <path fill-rule="evenodd" clip-rule="evenodd"
        d="M10.9059 17.8244L11.3576 17.0612C11.708 16.4692 11.8832 16.1732 12.1646 16.0095C12.446 15.8458 12.8004 15.8397 13.509 15.8275C14.5551 15.8095 15.2113 15.7454 15.7615 15.5175C16.7825 15.0946 17.5936 14.2834 18.0165 13.2625C18.3337 12.4968 18.3337 11.5261 18.3337 9.58464V8.7513C18.3337 6.02344 18.3337 4.65951 17.7197 3.65756C17.3761 3.09691 16.9047 2.62553 16.3441 2.28197C15.3421 1.66797 13.9782 1.66797 11.2503 1.66797H8.75033C6.02247 1.66797 4.65854 1.66797 3.65658 2.28197C3.09593 2.62553 2.62456 3.09691 2.28099 3.65756C1.66699 4.65951 1.66699 6.02344 1.66699 8.7513V9.58464C1.66699 11.5261 1.66699 12.4968 1.98416 13.2625C2.40705 14.2834 3.21819 15.0946 4.23914 15.5175C4.7894 15.7454 5.44551 15.8095 6.49164 15.8275C7.20026 15.8397 7.55457 15.8458 7.83598 16.0095C8.1174 16.1732 8.2926 16.4692 8.643 17.0612L9.09475 17.8244C9.49739 18.5046 10.5032 18.5046 10.9059 17.8244ZM13.3337 10.0013C13.7939 10.0013 14.167 9.62821 14.167 9.16797C14.167 8.70773 13.7939 8.33464 13.3337 8.33464C12.8734 8.33464 12.5003 8.70773 12.5003 9.16797C12.5003 9.62821 12.8734 10.0013 13.3337 10.0013ZM10.8337 9.16797C10.8337 9.62821 10.4606 10.0013 10.0003 10.0013C9.54009 10.0013 9.16699 9.62821 9.16699 9.16797C9.16699 8.70773 9.54009 8.33464 10.0003 8.33464C10.4606 8.33464 10.8337 8.70773 10.8337 9.16797ZM6.66699 10.0013C7.12723 10.0013 7.50033 9.62821 7.50033 9.16797C7.50033 8.70773 7.12723 8.33464 6.66699 8.33464C6.20675 8.33464 5.83366 8.70773 5.83366 9.16797C5.83366 9.62821 6.20675 10.0013 6.66699 10.0013Z"
        fill="white" />
</svg>