<svg viewBox="0 0 46 68" fill="none" xmlns="http://www.w3.org/2000/svg">
<path fill-rule="evenodd" clip-rule="evenodd" d="M23.1631 0C10.4397 0 0 10.216 0 22.6667C0 35.1174 10.1135 38.3099 23.1631 68C35.8865 38.3099 46 35.1174 46 22.6667C46 10.216 35.5603 0 23.1631 0ZM23.1631 14.6854C28.0567 14.6854 31.9716 18.5164 31.9716 23.3052C31.9716 28.0939 28.0567 31.9249 23.1631 31.9249C18.2695 31.9249 14.0284 28.0939 14.0284 23.3052C14.0284 18.5164 18.2695 14.6854 23.1631 14.6854Z" fill="#E74642"/>
<path d="M13 23C13 17.4772 17.4772 13 23 13C28.5228 13 33 17.4772 33 23C33 28.5228 28.5228 33 23 33C17.4772 33 13 28.5228 13 23Z" fill="#AC2B29"/>
</svg>
