<svg viewBox="0 0 20 20" fill="none" xmlns="http://www.w3.org/2000/svg">
    <path fill-rule="evenodd" clip-rule="evenodd"
        d="M2.7085 18.334C2.7085 17.9888 2.98832 17.709 3.3335 17.709H16.6668C17.012 17.709 17.2918 17.9888 17.2918 18.334C17.2918 18.6792 17.012 18.959 16.6668 18.959H3.3335C2.98832 18.959 2.7085 18.6792 2.7085 18.334Z"
        fill="#22283A" />
    <path
        d="M8.81094 13.1827C9.02306 13.0173 9.21547 12.8249 9.60023 12.4401L14.5308 7.50956C13.8597 7.23026 13.0649 6.77148 12.3133 6.0198C11.5615 5.268 11.1027 4.47307 10.8234 3.80195L5.89271 8.73261L5.89269 8.73264C5.50794 9.11739 5.31554 9.30978 5.15009 9.52191C4.95492 9.77214 4.78759 10.0429 4.65106 10.3294C4.53532 10.5722 4.44928 10.8303 4.2772 11.3466L3.3698 14.0688C3.28511 14.3228 3.35123 14.6029 3.54058 14.7923C3.72993 14.9816 4.01002 15.0477 4.26406 14.963L6.98628 14.0556C7.50251 13.8836 7.76063 13.7975 8.00348 13.6818C8.28996 13.5453 8.56071 13.3779 8.81094 13.1827Z"
        fill="#22283A" />
    <path
        d="M15.899 6.14139C16.9228 5.11758 16.9228 3.45767 15.899 2.43387C14.8752 1.41006 13.2153 1.41006 12.1915 2.43387L11.6001 3.02523C11.6082 3.04968 11.6166 3.07447 11.6253 3.09959C11.8421 3.72435 12.251 4.54335 13.0204 5.3127C13.7897 6.08204 14.6087 6.49101 15.2335 6.70776C15.2585 6.71643 15.2832 6.72479 15.3075 6.73286L15.899 6.14139Z"
        fill="#22283A" />
</svg>