<svg viewBox="0 0 20 20" fill="none" xmlns="http://www.w3.org/2000/svg">
    <path
        d="M1.66699 10.0007C1.66699 6.85795 1.66699 5.28661 2.6433 4.3103C3.61961 3.33398 5.19096 3.33398 8.33366 3.33398H11.667C14.8097 3.33398 16.381 3.33398 17.3573 4.3103C18.3337 5.28661 18.3337 6.85795 18.3337 10.0007C18.3337 13.1433 18.3337 14.7147 17.3573 15.691C16.381 16.6673 14.8097 16.6673 11.667 16.6673H8.33366C5.19096 16.6673 3.61961 16.6673 2.6433 15.691C1.66699 14.7147 1.66699 13.1433 1.66699 10.0007Z"
        stroke="currentColor" stroke-width="1.5" />
    <path
        d="M5 6.66602L6.79908 8.16525C8.32961 9.44069 9.09488 10.0784 10 10.0784C10.9051 10.0784 11.6704 9.44069 13.2009 8.16525L15 6.66602"
        stroke="currentColor" stroke-width="1.5" stroke-linecap="round" />
</svg>