<svg viewBox="0 0 16 16" fill="none" xmlns="http://www.w3.org/2000/svg">
    <path
        d="M14.6662 8.46393C14.6652 9.44365 14.6577 10.2764 14.6021 10.9597C14.5375 11.7525 14.4051 12.4151 14.1088 12.9654C13.9781 13.2081 13.8175 13.4254 13.6219 13.6209C13.067 14.1759 12.36 14.4272 11.464 14.5477C10.5887 14.6654 9.46682 14.6654 8.03525 14.6654H7.96409C6.53253 14.6654 5.41065 14.6654 4.53531 14.5477C3.63935 14.4272 2.93235 14.1759 2.37743 13.6209C1.88548 13.129 1.63143 12.5167 1.49633 11.7571C1.36361 11.011 1.33933 10.0826 1.33429 8.92985C1.33301 8.63663 1.33301 8.3265 1.33301 7.99932V7.96311C1.333 6.53156 1.33299 5.40967 1.45068 4.53433C1.57114 3.63837 1.82251 2.93138 2.37743 2.37646C2.93235 1.82154 3.63935 1.57016 4.53531 1.4497C5.31375 1.34504 6.31532 1.33346 7.53436 1.33219C7.79124 1.33192 7.99967 1.54027 7.99967 1.79715C7.99967 2.05402 7.79114 2.26216 7.53427 2.26243C6.298 2.26374 5.37801 2.27501 4.65926 2.37164C3.86645 2.47823 3.38848 2.68096 3.03521 3.03423C2.68193 3.38751 2.47921 3.86547 2.37262 4.65828C2.26423 5.46447 2.26324 6.52383 2.26324 7.9987C2.26324 8.17881 2.26324 8.35299 2.26345 8.52165L2.88431 7.9784C3.44944 7.48392 4.30117 7.51228 4.83216 8.04326L7.49245 10.7036C7.91864 11.1297 8.58952 11.1879 9.08265 10.8413L9.26758 10.7113C9.97718 10.2126 10.9372 10.2704 11.5819 10.8506L13.3373 12.4304C13.5139 12.0594 13.6189 11.5718 13.6749 10.8841C13.7277 10.2361 13.735 9.44902 13.736 8.46395C13.7362 8.20708 13.9443 7.9987 14.2012 7.9987C14.4581 7.9987 14.6664 8.20705 14.6662 8.46393Z"
        fill="currentColor" />
    <path fill-rule="evenodd" clip-rule="evenodd"
        d="M11.6663 7.33203C10.2521 7.33203 9.54502 7.33203 9.10568 6.89269C8.66634 6.45335 8.66634 5.74624 8.66634 4.33203C8.66634 2.91782 8.66634 2.21071 9.10568 1.77137C9.54502 1.33203 10.2521 1.33203 11.6663 1.33203C13.0806 1.33203 13.7877 1.33203 14.227 1.77137C14.6663 2.21071 14.6663 2.91782 14.6663 4.33203C14.6663 5.74624 14.6663 6.45335 14.227 6.89269C13.7877 7.33203 13.0806 7.33203 11.6663 7.33203ZM13.0199 3.64514L12.0199 2.64514C11.8246 2.44988 11.508 2.44988 11.3128 2.64514L10.3128 3.64514C10.1175 3.84041 10.1175 4.15699 10.3128 4.35225C10.508 4.54751 10.8246 4.54751 11.0199 4.35225L11.1663 4.2058V5.66536C11.1663 5.94151 11.3902 6.16536 11.6663 6.16536C11.9425 6.16536 12.1663 5.94151 12.1663 5.66536V4.2058L12.3128 4.35225C12.508 4.54751 12.8246 4.54751 13.0199 4.35225C13.2152 4.15699 13.2152 3.84041 13.0199 3.64514Z"
        fill="currentColor" />
</svg>