<svg viewBox="0 0 16 16" fill="none" xmlns="http://www.w3.org/2000/svg">
    <g clip-path="url(#clip0_8107_1189)">
        <path
            d="M15.5303 4.57041C15.4939 3.74442 15.3603 3.17656 15.169 2.6845C14.9716 2.16219 14.6679 1.69457 14.27 1.30583C13.8813 0.911044 13.4106 0.604279 12.8943 0.40997C12.3994 0.218627 11.8345 0.0850545 11.0085 0.0486365C10.1764 0.00913416 9.91218 0 7.80159 0C5.691 0 5.42683 0.00913416 4.59775 0.0455522C3.77176 0.0819703 3.2039 0.215661 2.71196 0.406886C2.18953 0.604279 1.72191 0.90796 1.33317 1.30583C0.938388 1.69457 0.631741 2.16527 0.437314 2.68153C0.245971 3.17656 0.112398 3.74133 0.0759802 4.56732C0.0364779 5.39948 0.0273438 5.66366 0.0273438 7.77425C0.0273438 9.88483 0.0364779 10.149 0.072896 10.9781C0.109314 11.8041 0.243005 12.3719 0.434348 12.864C0.631741 13.3863 0.938388 13.8539 1.33317 14.2427C1.72191 14.6374 2.19262 14.9442 2.70888 15.1385C3.2039 15.3299 3.76868 15.4634 4.59479 15.4999C5.42374 15.5364 5.68804 15.5454 7.79863 15.5454C9.90921 15.5454 10.1734 15.5364 11.0025 15.4999C11.8285 15.4634 12.3963 15.3299 12.8883 15.1385C13.933 14.7346 14.759 13.9086 15.1629 12.864C15.3541 12.369 15.4878 11.8041 15.5242 10.9781C15.5607 10.149 15.5698 9.88483 15.5698 7.77425C15.5698 5.66366 15.5667 5.39948 15.5303 4.57041ZM14.1304 10.9173C14.0969 11.6766 13.9694 12.0865 13.8631 12.3598C13.6019 13.0371 13.0644 13.5746 12.3872 13.8358C12.1139 13.9421 11.7009 14.0696 10.9447 14.1029C10.1248 14.1395 9.87884 14.1485 7.80468 14.1485C5.73051 14.1485 5.48151 14.1395 4.66454 14.1029C3.90533 14.0696 3.49536 13.9421 3.22205 13.8358C2.88503 13.7112 2.57827 13.5138 2.32927 13.2557C2.07114 13.0036 1.87375 12.6999 1.74919 12.3629C1.64291 12.0896 1.51538 11.6766 1.48205 10.9204C1.44551 10.1005 1.4365 9.85446 1.4365 7.7803C1.4365 5.70613 1.44551 5.45713 1.48205 4.64028C1.51538 3.88107 1.64291 3.4711 1.74919 3.19779C1.87375 2.86066 2.07114 2.55401 2.33236 2.30489C2.58432 2.04677 2.888 1.84937 3.22513 1.72493C3.49845 1.61865 3.9115 1.49112 4.66762 1.45767C5.48756 1.42125 5.73359 1.41212 7.80764 1.41212C9.88489 1.41212 10.1308 1.42125 10.9478 1.45767C11.707 1.49112 12.117 1.61865 12.3903 1.72493C12.7273 1.84937 13.034 2.04677 13.283 2.30489C13.5412 2.55697 13.7386 2.86066 13.8631 3.19779C13.9694 3.4711 14.0969 3.88404 14.1304 4.64028C14.1668 5.46022 14.1759 5.70613 14.1759 7.7803C14.1759 9.85446 14.1668 10.0974 14.1304 10.9173Z"
            fill="white" />
        <path
            d="M7.80201 3.78125C5.59735 3.78125 3.80859 5.56989 3.80859 7.77466C3.80859 9.97944 5.59735 11.7681 7.80201 11.7681C10.0068 11.7681 11.7954 9.97944 11.7954 7.77466C11.7954 5.56989 10.0068 3.78125 7.80201 3.78125ZM7.80201 10.3651C6.37174 10.3651 5.21158 9.20505 5.21158 7.77466C5.21158 6.34427 6.37174 5.18423 7.80201 5.18423C9.23239 5.18423 10.3924 6.34427 10.3924 7.77466C10.3924 9.20505 9.23239 10.3651 7.80201 10.3651Z"
            fill="white" />
        <path
            d="M12.8852 3.62368C12.8852 4.13852 12.4677 4.55596 11.9528 4.55596C11.438 4.55596 11.0205 4.13852 11.0205 3.62368C11.0205 3.10873 11.438 2.69141 11.9528 2.69141C12.4677 2.69141 12.8852 3.10873 12.8852 3.62368Z"
            fill="white" />
    </g>
    <defs>
        <clipPath id="clip0_8107_1189">
            <rect width="15.5455" height="15.5455" fill="white" />
        </clipPath>
    </defs>
</svg>