<svg viewBox="0 0 16 16" fill="none" xmlns="http://www.w3.org/2000/svg">
    <path
        d="M13.9911 13.9916V9.43683C13.9911 7.19828 13.5092 5.48828 10.8976 5.48828C9.63837 5.48828 8.79892 6.17228 8.45692 6.82519H8.42583V5.69037H5.9541V13.9916H8.53465V9.8721C8.53465 8.78392 8.73674 7.74237 10.0736 7.74237C11.395 7.74237 11.4106 8.97046 11.4106 9.93428V13.9761H13.9911V13.9916Z"
        fill="white" />
    <path d="M1.75684 5.68945H4.33738V13.9907H1.75684V5.68945Z" fill="white" />
    <path
        d="M3.04705 1.55469C2.22314 1.55469 1.55469 2.22314 1.55469 3.04705C1.55469 3.87096 2.22314 4.55496 3.04705 4.55496C3.87096 4.55496 4.53942 3.87096 4.53942 3.04705C4.53942 2.22314 3.87096 1.55469 3.04705 1.55469Z"
        fill="white" />
</svg>