<svg viewBox="0 0 20 20" fill="none" xmlns="http://www.w3.org/2000/svg">
    <path fill-rule="evenodd" clip-rule="evenodd"
        d="M13.4378 9.9987C13.4378 9.65352 13.158 9.3737 12.8128 9.3737L3.66903 9.3737L5.3029 7.97323C5.56498 7.7486 5.59533 7.35403 5.37069 7.09195C5.14606 6.82987 4.75149 6.79952 4.48941 7.02416L1.57275 9.52416C1.43422 9.6429 1.35449 9.81624 1.35449 9.9987C1.35449 10.1812 1.43422 10.3545 1.57275 10.4732L4.48941 12.9732C4.75149 13.1979 5.14606 13.1675 5.37069 12.9054C5.59533 12.6434 5.56498 12.2488 5.3029 12.0242L3.66903 10.6237L12.8128 10.6237C13.158 10.6237 13.4378 10.3439 13.4378 9.9987Z"
        fill="#B3251E" />
    <path
        d="M7.81282 6.66536C7.81282 7.25052 7.81282 7.5431 7.95325 7.75328C8.01406 7.84429 8.0922 7.92243 8.18321 7.98324C8.39338 8.12366 8.68596 8.12366 9.27112 8.12366L12.8128 8.12366C13.8484 8.12366 14.6878 8.96313 14.6878 9.99866C14.6878 11.0342 13.8484 11.8737 12.8128 11.8737L9.27119 11.8737C8.68597 11.8737 8.39335 11.8737 8.18316 12.0141C8.09219 12.0749 8.01407 12.153 7.95328 12.244C7.81282 12.4542 7.81282 12.7468 7.81282 13.332C7.81283 15.6891 7.81283 16.8676 8.54506 17.5998C9.27729 18.332 10.4556 18.332 12.8126 18.332L13.646 18.332C16.003 18.332 17.1815 18.332 17.9137 17.5998C18.646 16.8676 18.646 15.6891 18.646 13.332L18.646 6.66536C18.646 4.30835 18.646 3.12983 17.9137 2.3976C17.1815 1.66536 16.003 1.66536 13.646 1.66536L12.8126 1.66536C10.4556 1.66536 9.27729 1.66536 8.54506 2.3976C7.81282 3.12983 7.81282 4.30834 7.81282 6.66536Z"
        fill="#B3251E" />
</svg>