<svg viewBox="0 0 30 30" fill="none" xmlns="http://www.w3.org/2000/svg">
    <path
        d="M18.6817 1.5625C16.9722 1.56248 15.5943 1.56246 14.5106 1.70816C13.3854 1.85943 12.4381 2.18304 11.6857 2.93544C11.0295 3.5916 10.698 4.39794 10.524 5.34544C10.3548 6.26614 10.3225 7.39287 10.315 8.74478C10.3121 9.26254 10.7295 9.6846 11.2472 9.68749C11.765 9.69037 12.187 9.27298 12.1899 8.75522C12.1975 7.38835 12.233 6.41949 12.3681 5.68418C12.4982 4.97567 12.7072 4.56558 13.0115 4.26126C13.3575 3.91531 13.8432 3.68975 14.7604 3.56644C15.7046 3.43949 16.956 3.4375 18.7503 3.4375H20.0003C21.7945 3.4375 23.0459 3.43949 23.9901 3.56644C24.9073 3.68975 25.3931 3.91531 25.739 4.26126C26.085 4.60722 26.3105 5.09293 26.4338 6.01015C26.5608 6.95434 26.5628 8.20573 26.5628 10V20C26.5628 21.7943 26.5608 23.0457 26.4338 23.9899C26.3105 24.9071 26.085 25.3928 25.739 25.7387C25.3931 26.0847 24.9073 26.3103 23.9901 26.4336C23.0459 26.5605 21.7945 26.5625 20.0003 26.5625H18.7503C16.956 26.5625 15.7046 26.5605 14.7604 26.4336C13.8432 26.3103 13.3575 26.0847 13.0115 25.7387C12.7072 25.4344 12.4982 25.0243 12.3681 24.3158C12.233 23.5805 12.1975 22.6117 12.1899 21.2448C12.187 20.727 11.765 20.3096 11.2472 20.3125C10.7295 20.3154 10.3121 20.7375 10.315 21.2552C10.3225 22.6071 10.3548 23.7339 10.524 24.6546C10.698 25.6021 11.0295 26.4084 11.6857 27.0646C12.4381 27.817 13.3854 28.1406 14.5106 28.2919C15.5943 28.4375 16.9722 28.4375 18.6817 28.4375H20.0689C21.7783 28.4375 23.1562 28.4375 24.24 28.2919C25.3651 28.1406 26.3124 27.817 27.0648 27.0646C27.8172 26.3122 28.1408 25.3648 28.2921 24.2397C28.4378 23.156 28.4378 21.7781 28.4378 20.0686V9.93142C28.4378 8.22193 28.4378 6.84402 28.2921 5.76031C28.1408 4.63518 27.8172 3.68783 27.0648 2.93544C26.3124 2.18304 25.3651 1.85943 24.24 1.70816C23.1563 1.56246 21.7784 1.56248 20.0689 1.5625H18.6817Z"
        fill="currentColor" />
    <path
        d="M18.75 14.0625C19.2678 14.0625 19.6875 14.4822 19.6875 15C19.6875 15.5178 19.2678 15.9375 18.75 15.9375H5.0343L7.48512 18.0382C7.87823 18.3752 7.92376 18.967 7.5868 19.3601C7.24985 19.7532 6.658 19.7988 6.26488 19.4618L1.88988 15.7118C1.68209 15.5337 1.5625 15.2737 1.5625 15C1.5625 14.7263 1.68209 14.4663 1.88988 14.2882L6.26488 10.5382C6.658 10.2012 7.24984 10.2468 7.5868 10.6399C7.92376 11.033 7.87823 11.6248 7.48512 11.9618L5.0343 14.0625H18.75Z"
        fill="currentColor" />
</svg>