<svg viewBox="0 0 77 76" fill="none" xmlns="http://www.w3.org/2000/svg">
    <path
        d="M18.5784 53.1592C17.8819 53.8068 17.1329 54.4075 16.5024 55.1143C15.6018 56.1244 15.2165 57.2917 15.7785 58.6369C16.3645 60.0391 17.7998 60.258 18.8246 59.1191C19.0629 58.8547 19.4357 58.7133 19.7469 58.5149C19.9031 58.9424 20.2154 59.3802 20.1881 59.7963C20.0741 61.5519 17.8648 62.334 16.2665 61.2225C14.5416 60.0243 14.0435 57.7671 15.0695 55.8029C15.7204 54.5489 17.2355 53.2333 18.3664 52.9187L18.5784 53.1592Z"
        fill="currentColor" />
    <path
        d="M40.4812 4.12214C46.1675 11.319 42.8296 23.4064 36.5482 29.1406C28.6811 36.4833 19.5839 42.6678 12.4167 50.763C9.69437 53.841 9.28169 55.0767 8.39477 58.2026C7.75067 60.4723 8.18957 62.1447 9.62255 63.6963C13.0995 67.4583 21.3497 67.6692 25.0125 64.1146C26.808 62.3727 27.3359 60.2193 26.7556 57.8161C26.205 55.5361 25.6977 53.2447 24.9578 51.0286C23.4861 46.6168 25.7729 43.9674 28.5044 40.8826C29.4164 42.5926 30.081 43.8819 31.0944 45.6421C31.6029 44.9706 31.9529 44.5021 32.3051 44.0461C37.8535 36.1561 52.4934 25.1597 59.5283 36.8196C62.6542 42.3885 57.7305 50.7151 54.6708 55.4187C54.4781 55.7231 54.0928 55.9044 53.7793 56.1574C51.3374 53.9322 48.6493 54.7176 46.0216 55.4107C42.4181 56.3604 38.908 57.7808 35.0776 57.4992C33.9171 57.4137 32.7623 57.2632 31.6576 57.1481C44.2888 71.1598 61.9565 67.9268 71.8483 52.7899C72.1162 52.4103 71.8198 51.2782 71.414 50.8405C69.9787 49.2855 68.3018 47.9529 66.8597 46.4036C62.8776 42.1263 62.4832 37.9676 65.4917 33.0052C66.7662 30.9042 68.0441 28.8054 69.3677 26.7352C70.2272 25.3888 70.7448 25.4082 71.382 26.8218C72.8754 30.1278 74.3631 33.4407 75.7619 36.7877C76.9863 39.7164 77.1299 42.7362 76.2179 45.8028C73.4067 55.2717 68.5366 63.4124 60.3468 69.174C49.6536 77.2235 36.6588 68.4729 30.9736 58.4682C30.1163 60.1326 29.4289 61.7742 28.4804 63.2471C23.0848 72.6567 7.35395 77.2406 4.38539 63.5629C1.61063 49.3129 9.73313 42.6188 19.6192 34.2797C23.9227 30.5565 28.477 27.1125 32.6448 23.2491C36.1275 20.0206 38.6196 16.0032 39.4848 11.2141C39.8531 8.91698 39.7402 6.52868 39.9203 4.2008L40.4812 4.12214ZM32.8113 47.9289C34.7037 48.5536 36.1458 49.4109 37.5993 49.428C40.2441 49.4565 42.9174 49.1248 45.5371 48.687C48.3267 48.2208 51.0479 47.343 53.8374 46.863C55.5816 46.5655 55.9966 46.1494 55.1416 44.5488C53.5946 41.6509 51.1151 40.1598 47.8559 39.9375C41.4696 39.5089 37.2413 43.1911 32.8113 47.9289ZM72.3887 42.7294C71.7879 39.1395 69.4646 36.424 67.6269 33.4521C67.1538 37.5891 69.631 40.2111 72.3887 42.7294Z"
        fill="currentColor" />
    <path
        d="M37.5218 7.36658C37.4727 4.71266 36.7762 2.27534 35.1665 0.164062C35.0525 -0.053678 34.7265 -0.0639396 34.6592 0.18914C34.5874 0.76598 34.5646 1.35194 34.5042 1.93106C34.3617 3.4997 34.3685 5.10026 34.0413 6.63014C32.3906 14.8461 25.5267 19.0185 19.4265 23.8259C17.2605 25.6579 14.9999 27.3713 12.7587 29.1087C4.77869 35.3718 -0.940691 41.0627 0.128629 51.8596C0.415898 53.7709 1.18439 55.5778 2.36189 57.1105C2.47589 57.3202 2.78711 57.3385 2.86463 57.0979C2.94215 56.5165 2.95127 55.9237 3.01169 55.3389C3.14279 53.7691 3.12569 52.1686 3.43919 50.6364C4.89953 43.101 10.7283 38.9605 16.3941 34.5271C21.0681 30.512 26.2654 27.0988 30.822 22.9618C35.2919 18.8646 37.638 13.5716 37.5218 7.36658Z"
        fill="currentColor" />
    <path
        d="M40.1768 31.2804C40.9007 30.0264 41.5038 28.672 42.3713 27.5184C45.0241 24.0037 48.9719 22.5149 52.9163 21.0888C56.7387 19.7059 60.617 18.4747 64.4189 17.0383C66.0149 16.4387 67.4616 15.4754 68.9789 14.6888C69.3426 14.5007 69.729 14.3559 70.4222 14.0515C70.2443 16.2312 69.3802 17.7064 67.8104 18.5181C61.6658 21.8035 54.8395 23.5762 48.4988 26.3784C45.7127 27.7065 43.3153 29.9124 40.7275 31.6486L40.1768 31.2804Z"
        fill="currentColor" />
    <path
        d="M36.9769 68.7613C36.7375 71.9886 33.7963 72.5381 31.3042 73.1548C29.0926 73.7169 26.8685 74.2333 24.6455 74.7508C24.2408 74.8455 23.8224 74.8808 22.9093 75.0199C23.5169 74.1877 23.7517 73.5447 24.1997 73.3099C25.8562 72.4537 27.5434 71.6204 29.2978 71.0014C30.5427 70.5625 31.9415 70.575 33.224 70.2148C34.4312 69.883 35.5747 69.3187 36.9769 68.7613Z"
        fill="currentColor" />
    <path
        d="M64.2491 13.298C63.3462 12.842 62.8491 12.7599 62.6884 12.4818C62.2541 11.7294 61.5085 10.7216 61.7308 10.1356C62.0135 9.39122 63.1125 8.53964 63.8865 8.51798C64.6298 8.4929 65.8245 9.30002 66.0947 10.0171C67.025 12.459 64.9308 15.7684 62.3612 16.1263C61.8288 16.1993 61.2212 15.7547 60.6512 15.5484C61.0559 15.187 61.4196 14.7618 61.8733 14.4802C62.4946 14.096 63.1797 13.8213 64.2491 13.298Z"
        fill="currentColor" />
    <path
        d="M52.9631 5.01704C56.1676 6.84104 56.6544 13.8691 53.223 18.4075C53.1774 17.6232 53.0349 17.1204 53.1432 16.6781C53.8204 13.9068 53.5342 11.2962 52.197 8.74712C51.4811 7.37912 51.7911 6.06926 52.9631 5.01704Z"
        fill="currentColor" />
</svg>