<svg viewBox="0 0 17 16" fill="none" xmlns="http://www.w3.org/2000/svg">
    <path fill-rule="evenodd" clip-rule="evenodd"
        d="M12.4697 4.46967C12.1768 4.76256 12.1768 5.23744 12.4697 5.53033L14.1893 7.25H6C5.58579 7.25 5.25 7.58579 5.25 8C5.25 8.41421 5.58579 8.75 6 8.75H14.1893L12.4697 10.4697C12.1768 10.7626 12.1768 11.2374 12.4697 11.5303C12.7626 11.8232 13.2374 11.8232 13.5303 11.5303L16.5303 8.53033C16.8232 8.23744 16.8232 7.76256 16.5303 7.46967L13.5303 4.46967C13.2374 4.17678 12.7626 4.17678 12.4697 4.46967Z"
        fill="#B3251E" />
    <path
        d="M0 8C0 12.4183 3.58172 16 8 16V12.25C8 11.3072 8 10.8358 7.70711 10.5429C7.41421 10.25 6.94281 10.25 6 10.25C4.75736 10.25 3.75 9.24264 3.75 8C3.75 6.75736 4.75736 5.75 6 5.75C6.94281 5.75 7.41421 5.75 7.70711 5.45711C8 5.16421 8 4.69281 8 3.75V0C3.58172 0 0 3.58172 0 8Z"
        fill="#B3251E" />
</svg>