<svg viewBox="0 0 102 78" fill="none" xmlns="http://www.w3.org/2000/svg">
    <g clip-path="url(#clip0_8053_4413)">
        <path
            d="M39.1264 55.5091C38.3932 56.1907 37.6048 56.8231 36.9412 57.5671C35.9932 58.6303 35.5876 59.8591 36.1792 61.2751C36.796 62.7511 38.3068 62.9815 39.3856 61.7827C39.6364 61.5043 40.0288 61.3555 40.3564 61.1467C40.5208 61.5967 40.8496 62.0575 40.8208 62.4955C40.7008 64.3435 38.3752 65.1667 36.6928 63.9967C34.8772 62.7355 34.3528 60.3595 35.4328 58.2919C36.118 56.9719 37.7128 55.5871 38.9032 55.2559L39.1264 55.5091Z"
            fill="#22283A" />
        <path
            d="M62.1815 3.89062C68.1671 11.4662 64.6535 24.1898 58.0415 30.2258C49.7603 37.955 40.1843 44.465 32.6399 52.9862C29.7743 56.2262 29.3399 57.527 28.4063 60.8174C27.7283 63.2066 28.1903 64.967 29.6987 66.6002C33.3587 70.5602 42.0431 70.7822 45.8987 67.0406C47.7887 65.207 48.3443 62.9402 47.7335 60.4106C47.1539 58.0106 46.6199 55.5986 45.8411 53.2658C44.2919 48.6218 46.6991 45.833 49.5743 42.5858C50.5343 44.3858 51.2339 45.743 52.3007 47.5958C52.8359 46.889 53.2043 46.3958 53.5751 45.9158C59.4155 37.6106 74.8259 26.0354 82.2311 38.309C85.5215 44.171 80.3387 52.9358 77.1179 57.887C76.9151 58.2074 76.5095 58.3982 76.1795 58.6646C73.6091 56.3222 70.7795 57.149 68.0135 57.8786C64.2203 58.8782 60.5255 60.3734 56.4935 60.077C55.2719 59.987 54.0563 59.8286 52.8935 59.7074C66.1895 74.4566 84.7871 71.0534 95.1995 55.1198C95.4815 54.7202 95.1695 53.5286 94.7423 53.0678C93.2315 51.431 91.4663 50.0282 89.9483 48.3974C85.7567 43.895 85.3415 39.5174 88.5083 34.2938C89.8499 32.0822 91.1951 29.873 92.5883 27.6938C93.4931 26.2766 94.0379 26.297 94.7087 27.785C96.2807 31.265 97.8467 34.7522 99.3191 38.2754C100.608 41.3582 100.759 44.537 99.7991 47.765C96.8399 57.7322 91.7135 66.3014 83.0927 72.3662C71.8367 80.8394 58.1579 71.6282 52.1735 61.097C51.2711 62.849 50.5475 64.577 49.5491 66.1274C43.8695 76.0322 27.3107 80.8574 24.1859 66.4598C21.2651 51.4598 29.8151 44.4134 40.2215 35.6354C44.7515 31.7162 49.5455 28.091 53.9327 24.0242C57.5987 20.6258 60.2219 16.397 61.1327 11.3558C61.5203 8.93783 61.4015 6.42383 61.5911 3.97343L62.1815 3.89062ZM54.1079 50.003C56.0999 50.6606 57.6179 51.563 59.1479 51.581C61.9319 51.611 64.7459 51.2618 67.5035 50.801C70.4399 50.3102 73.3043 49.3862 76.2407 48.881C78.0767 48.5678 78.5135 48.1298 77.6135 46.445C75.9851 43.3946 73.3751 41.825 69.9443 41.591C63.2219 41.1398 58.7711 45.0158 54.1079 50.003ZM95.7683 44.5298C95.1359 40.751 92.6903 37.8926 90.7559 34.7642C90.2579 39.119 92.8655 41.879 95.7683 44.5298Z"
            fill="#22283A" />
        <path
            d="M59.0659 7.30703C59.0143 4.51343 58.2811 1.94783 56.5867 -0.274569C56.4667 -0.503769 56.1235 -0.51457 56.0527 -0.24817C55.9771 0.35903 55.9531 0.975831 55.8895 1.58543C55.7395 3.23663 55.7467 4.92143 55.4023 6.53183C53.6647 15.1802 46.4395 19.5722 40.0183 24.6326C37.7383 26.561 35.3587 28.3646 32.9995 30.1934C24.5995 36.7862 18.5791 42.7766 19.7047 54.1418C20.0071 56.1537 20.8161 58.0557 22.0555 59.669C22.1755 59.8898 22.5031 59.909 22.5847 59.6558C22.6663 59.0438 22.6759 58.4198 22.7395 57.8042C22.8775 56.1518 22.8595 54.467 23.1895 52.8542C24.7267 44.9222 30.8623 40.5638 36.8263 35.897C41.7463 31.6706 47.2171 28.0778 52.0135 23.723C56.7187 19.4102 59.1883 13.8386 59.0659 7.30703Z"
            fill="#22283A" />
        <path
            d="M61.8613 32.4794C62.6233 31.1594 63.2581 29.7338 64.1713 28.5194C66.9637 24.8198 71.1193 23.2526 75.2713 21.7514C79.2949 20.2958 83.3773 18.9998 87.3793 17.4878C89.0593 16.8566 90.5821 15.8425 92.1793 15.0145C92.5621 14.8165 92.9689 14.6642 93.6985 14.3438C93.5113 16.6382 92.6017 18.1909 90.9493 19.0454C84.4813 22.5038 77.2957 24.3698 70.6213 27.3194C67.6885 28.7174 65.1649 31.0394 62.4409 32.867L61.8613 32.4794Z"
            fill="#22283A" />
        <path
            d="M58.4926 71.9336C58.2406 75.3308 55.1446 75.9092 52.5214 76.5584C50.1934 77.15 47.8522 77.6936 45.5122 78.2384C45.0862 78.338 44.6458 78.3752 43.6846 78.5216C44.3242 77.6456 44.5714 76.9688 45.043 76.7216C46.7866 75.8204 48.5626 74.9432 50.4094 74.2916C51.7198 73.8296 53.1922 73.8428 54.5422 73.4636C55.813 73.1144 57.0166 72.5204 58.4926 71.9336Z"
            fill="#22283A" />
        <path
            d="M87.2003 13.5498C86.2499 13.0698 85.7267 12.9834 85.5575 12.6906C85.1003 11.8986 84.3155 10.8378 84.5495 10.221C84.8471 9.43738 86.0039 8.54098 86.8187 8.51818C87.6011 8.49178 88.8587 9.34138 89.1431 10.0962C90.1223 12.6666 87.9179 16.1502 85.2131 16.527C84.6527 16.6038 84.0131 16.1358 83.4131 15.9186C83.8391 15.5382 84.2219 15.0906 84.6995 14.7942C85.3535 14.3898 86.0747 14.1006 87.2003 13.5498Z"
            fill="#22283A" />
        <path
            d="M75.3208 4.83398C78.694 6.75398 79.2064 14.152 75.5944 18.9292C75.5464 18.1036 75.3964 17.5744 75.5104 17.1088C76.2232 14.1916 75.922 11.4436 74.5144 8.76038C73.7608 7.32038 74.0872 5.94158 75.3208 4.83398Z"
            fill="#22283A" />
    </g>
    <defs>
        <clipPath id="clip0_8053_4413">
            <rect width="102" height="78" fill="white" />
        </clipPath>
    </defs>
</svg>