<svg viewBox="0 0 46 108" fill="none" xmlns="http://www.w3.org/2000/svg">
    <path fill-rule="evenodd" clip-rule="evenodd"
        d="M23.1631 0C10.4397 0 0 10.216 0 22.6667C0 35.1174 10.1135 38.3099 23.1631 68C35.8865 38.3099 46 35.1174 46 22.6667C46 10.216 35.5603 0 23.1631 0ZM23.1631 14.6854C28.0567 14.6854 31.9716 18.5164 31.9716 23.3052C31.9716 28.0939 28.0567 31.9249 23.1631 31.9249C18.2695 31.9249 14.0284 28.0939 14.0284 23.3052C14.0284 18.5164 18.2695 14.6854 23.1631 14.6854Z"
        fill="white" />
    <path fill-rule="evenodd" clip-rule="evenodd"
        d="M40.3988 61.1378C48.3457 77.8797 39.6004 94.4199 26.4347 105.636C26.2089 105.829 26.1811 106.17 26.3741 106.396C26.5672 106.621 26.9076 106.649 27.1334 106.456C40.6685 94.9263 49.5411 77.8862 41.3713 60.6754C41.2445 60.407 40.9233 60.2928 40.6538 60.4203C40.3854 60.5471 40.2713 60.8683 40.3988 61.1378Z"
        fill="white" />
    <path fill-rule="evenodd" clip-rule="evenodd"
        d="M27.0313 105.836C27.3568 104.947 27.7777 103.836 27.8217 103.709C29.0163 100.255 29.6111 96.8015 29.7217 93.1413C29.7311 92.8443 29.4965 92.5955 29.1995 92.5862C28.9024 92.5768 28.6537 92.8114 28.6443 93.1085C28.5382 96.6578 27.9622 100.007 26.8031 103.357C26.7356 103.553 25.7881 106.049 25.6344 106.568C25.5704 106.781 25.6002 106.921 25.6104 106.953C25.658 107.127 25.7609 107.221 25.8536 107.276C25.9588 107.338 26.1575 107.399 26.4153 107.325C26.6849 107.246 27.2013 106.948 27.3377 106.883C29.3992 105.91 31.6152 104.644 33.8992 103.892C36.0773 103.174 38.3199 102.923 40.5413 103.936C40.8117 104.06 41.1317 103.94 41.2553 103.669C41.3788 103.399 41.2585 103.079 40.9882 102.955C38.5043 101.823 35.9966 102.066 33.5626 102.868C31.2922 103.616 29.0864 104.855 27.0313 105.836Z"
        fill="white" />
</svg>