<svg viewBox="0 0 12 15" fill="none" xmlns="http://www.w3.org/2000/svg">
    <g clip-path="url(#clip0_6411_9985)">
        <path
            d="M11.7926 6.1596V7.76674C11.7926 7.98996 11.7144 8.17969 11.5582 8.33594C11.4019 8.49219 11.2122 8.57031 10.989 8.57031H0.810407C0.587193 8.57031 0.397461 8.49219 0.241211 8.33594C0.0849609 8.17969 0.00683594 7.98996 0.00683594 7.76674V6.1596C0.00683594 5.93638 0.0849609 5.74665 0.241211 5.5904C0.397461 5.43415 0.587193 5.35603 0.810407 5.35603H10.989C11.2122 5.35603 11.4019 5.43415 11.5582 5.5904C11.7144 5.74665 11.7926 5.93638 11.7926 6.1596Z"
            fill="#333333" />
    </g>
    <defs>
        <clipPath id="clip0_6411_9985">
            <rect width="11.8" height="15" fill="white" transform="matrix(1 0 0 -1 0 15)" />
        </clipPath>
    </defs>
</svg>