<svg viewBox="0 0 180 180" fill="none" xmlns="http://www.w3.org/2000/svg">
    <path
        d="M149.766 29.7703V144.492C42.5728 174.621 50.6528 172.617 47.8125 172.617C40.056 172.617 33.75 166.325 33.75 158.555V46.0547V31.9922V17.9297C33.75 12.1043 29.0285 7.38281 23.2031 7.38281H127.378C139.743 7.38281 149.766 17.4059 149.766 29.7703Z"
        fill="white" />
    <path
        d="M33.75 46.0547H12.6562V17.9297C12.6562 12.0459 17.4435 7.38281 23.2031 7.38281C29.0285 7.38281 33.75 12.1043 33.75 17.9297V46.0547Z"
        fill="#EFF1F6" />
    <path
        d="M51.6621 172.083C57.5578 170.409 61.875 164.985 61.875 158.555V144.492H149.766H167.344C167.344 160.024 154.751 172.617 139.219 172.617H51.6621V172.083Z"
        fill="#EFF1F6" />
    <path
        d="M169.102 28.4766C172.014 28.4766 174.375 26.1156 174.375 23.2031C174.375 20.2907 172.014 17.9297 169.102 17.9297C166.189 17.9297 163.828 20.2907 163.828 23.2031C163.828 26.1156 166.189 28.4766 169.102 28.4766Z"
        fill="#7E8CB4" />
    <path
        d="M167.344 119.883C169.285 119.883 170.859 118.309 170.859 116.367C170.859 114.426 169.285 112.852 167.344 112.852C165.402 112.852 163.828 114.426 163.828 116.367C163.828 118.309 165.402 119.883 167.344 119.883Z"
        fill="#7E8CB4" />
    <path
        d="M163.828 60.1172C165.77 60.1172 167.344 58.5432 167.344 56.6016C167.344 54.6599 165.77 53.0859 163.828 53.0859C161.886 53.0859 160.312 54.6599 160.312 56.6016C160.312 58.5432 161.886 60.1172 163.828 60.1172Z"
        fill="#7E8CB4" />
    <path
        d="M16.1719 102.305C18.1135 102.305 19.6875 100.731 19.6875 98.7891C19.6875 96.8474 18.1135 95.2734 16.1719 95.2734C14.2302 95.2734 12.6562 96.8474 12.6562 98.7891C12.6562 100.731 14.2302 102.305 16.1719 102.305Z"
        fill="#7E8CB4" />
    <path
        d="M10.8984 155.039C13.8109 155.039 16.1719 152.678 16.1719 149.766C16.1719 146.853 13.8109 144.492 10.8984 144.492C7.986 144.492 5.625 146.853 5.625 149.766C5.625 152.678 7.986 155.039 10.8984 155.039Z"
        fill="#7E8CB4" />
    <path
        d="M149.766 148.008C147.824 148.008 146.25 146.434 146.25 144.492V29.7703C146.25 19.3644 137.784 10.8984 127.378 10.8984H23.2031C21.2614 10.8984 19.6875 9.32414 19.6875 7.38281C19.6875 5.44148 21.2614 3.86719 23.2031 3.86719H127.378C141.661 3.86719 153.281 15.4874 153.281 29.7703V144.492C153.281 146.434 151.707 148.008 149.766 148.008Z"
        fill="#7E8CB4" />
    <path
        d="M139.219 176.133H51.3281C50.952 176.133 50.5895 176.074 50.2499 175.964C49.4452 176.077 48.6306 176.133 47.8125 176.133C43.1195 176.133 38.7056 174.304 35.3844 170.983C32.0639 167.667 30.2344 163.252 30.2344 158.555V46.0547C30.2344 44.1134 31.8083 42.5391 33.75 42.5391C35.6917 42.5391 37.2656 44.1134 37.2656 46.0547V158.555C37.2656 161.373 38.3629 164.02 40.3548 166.009C42.3492 168.004 44.9975 169.102 47.8125 169.102C48.7948 169.102 49.7665 168.967 50.6999 168.701C55.2104 167.421 58.3594 163.249 58.3594 158.555V144.492C58.3594 142.551 59.9333 140.977 61.875 140.977H167.344C169.285 140.977 170.859 142.551 170.859 144.492C170.859 161.939 156.665 176.133 139.219 176.133ZM61.8567 169.102H139.219C151.595 169.102 161.867 159.918 163.578 148.008H65.3906V158.555C65.3906 162.448 64.0898 166.126 61.8567 169.102Z"
        fill="#7E8CB4" />
    <path
        d="M33.75 49.5703H12.6562C10.7146 49.5703 9.14062 47.996 9.14062 46.0547V17.9297C9.14062 14.1701 10.6045 10.6383 13.263 7.98469C15.9177 5.33039 19.4484 3.86719 23.2031 3.86719C30.9572 3.86719 37.2656 10.1756 37.2656 17.9297V46.0547C37.2656 47.996 35.6917 49.5703 33.75 49.5703ZM16.1719 42.5391H30.2344V17.9297C30.2344 14.0527 27.0802 10.8984 23.2031 10.8984C21.3265 10.8984 19.5613 11.6304 18.2324 12.9589C16.9028 14.2861 16.1719 16.0506 16.1719 17.9297V42.5391Z"
        fill="#7E8CB4" />
    <path
        d="M132.188 123.398H51.3281C49.3864 123.398 47.8125 121.824 47.8125 119.883C47.8125 117.941 49.3864 116.367 51.3281 116.367H132.188C134.129 116.367 135.703 117.941 135.703 119.883C135.703 121.824 134.129 123.398 132.188 123.398Z"
        fill="#7E8CB4" />
    <path
        d="M132.188 109.336H51.3281C49.3864 109.336 47.8125 107.762 47.8125 105.82C47.8125 103.879 49.3864 102.305 51.3281 102.305H132.188C134.129 102.305 135.703 103.879 135.703 105.82C135.703 107.762 134.129 109.336 132.188 109.336Z"
        fill="#7E8CB4" />
    <path
        d="M132.188 95.2734H51.3281C49.3864 95.2734 47.8125 93.6991 47.8125 91.7578C47.8125 89.8165 49.3864 88.2422 51.3281 88.2422H132.188C134.129 88.2422 135.703 89.8165 135.703 91.7578C135.703 93.6991 134.129 95.2734 132.188 95.2734Z"
        fill="#7E8CB4" />
    <path
        d="M132.188 81.2109H51.3281C49.3864 81.2109 47.8125 79.6366 47.8125 77.6953C47.8125 75.754 49.3864 74.1797 51.3281 74.1797H132.188C134.129 74.1797 135.703 75.754 135.703 77.6953C135.703 79.6366 134.129 81.2109 132.188 81.2109Z"
        fill="#7E8CB4" />
    <path
        d="M132.188 67.1484H51.3281C49.3864 67.1484 47.8125 65.5741 47.8125 63.6328C47.8125 61.6915 49.3864 60.1172 51.3281 60.1172H132.188C134.129 60.1172 135.703 61.6915 135.703 63.6328C135.703 65.5741 134.129 67.1484 132.188 67.1484Z"
        fill="#7E8CB4" />
    <path
        d="M82.9688 53.0859H51.3281C49.3864 53.0859 47.8125 51.5116 47.8125 49.5703C47.8125 47.629 49.3864 46.0547 51.3281 46.0547H82.9688C84.9104 46.0547 86.4844 47.629 86.4844 49.5703C86.4844 51.5116 84.9104 53.0859 82.9688 53.0859Z"
        fill="#7E8CB4" />
</svg>