<svg viewBox="0 0 30 30" fill="none" xmlns="http://www.w3.org/2000/svg">
    <path
        d="M10 16.25C10.6904 16.25 11.25 15.6904 11.25 15C11.25 14.3096 10.6904 13.75 10 13.75C9.30965 13.75 8.75 14.3096 8.75 15C8.75 15.6904 9.30965 16.25 10 16.25Z"
        fill="#22283A" />
    <path
        d="M16.25 15C16.25 15.6904 15.6904 16.25 15 16.25C14.3096 16.25 13.75 15.6904 13.75 15C13.75 14.3096 14.3096 13.75 15 13.75C15.6904 13.75 16.25 14.3096 16.25 15Z"
        fill="#22283A" />
    <path
        d="M20 16.25C20.6904 16.25 21.25 15.6904 21.25 15C21.25 14.3096 20.6904 13.75 20 13.75C19.3096 13.75 18.75 14.3096 18.75 15C18.75 15.6904 19.3096 16.25 20 16.25Z"
        fill="#22283A" />
    <path fill-rule="evenodd" clip-rule="evenodd"
        d="M12.4295 4.0625C10.1323 4.06248 8.31274 4.06247 6.88872 4.25392C5.4232 4.45095 4.23701 4.8661 3.30156 5.80156C2.3661 6.73701 1.95095 7.9232 1.75392 9.38872C1.56247 10.8127 1.56248 12.6323 1.5625 14.9295V15.0705C1.56248 17.3677 1.56247 19.1873 1.75392 20.6113C1.95095 22.0768 2.3661 23.263 3.30156 24.1984C4.23701 25.1339 5.4232 25.549 6.88872 25.7461C8.31273 25.9375 10.1323 25.9375 12.4294 25.9375H17.5705C19.8677 25.9375 21.6873 25.9375 23.1113 25.7461C24.5768 25.549 25.763 25.1339 26.6984 24.1984C27.6339 23.263 28.049 22.0768 28.2461 20.6113C28.4375 19.1873 28.4375 17.3677 28.4375 15.0706V14.9295C28.4375 12.6323 28.4375 10.8127 28.2461 9.38872C28.049 7.9232 27.6339 6.73701 26.6984 5.80156C25.763 4.8661 24.5768 4.45095 23.1113 4.25392C21.6873 4.06247 19.8677 4.06248 17.5705 4.0625H12.4295ZM4.62738 7.12738C5.15639 6.59837 5.88095 6.28128 7.13856 6.1122C8.42314 5.93949 10.1165 5.9375 12.5 5.9375H17.5C19.8835 5.9375 21.5769 5.93949 22.8614 6.1122C24.1191 6.28128 24.8436 6.59837 25.3726 7.12738C25.9016 7.65639 26.2187 8.38095 26.3878 9.63856C26.5605 10.9231 26.5625 12.6165 26.5625 15C26.5625 17.3835 26.5605 19.0769 26.3878 20.3614C26.2187 21.6191 25.9016 22.3436 25.3726 22.8726C24.8436 23.4016 24.1191 23.7187 22.8614 23.8878C21.5769 24.0605 19.8835 24.0625 17.5 24.0625H12.5C10.1165 24.0625 8.42314 24.0605 7.13856 23.8878C5.88095 23.7187 5.15639 23.4016 4.62738 22.8726C4.09837 22.3436 3.78128 21.6191 3.6122 20.3614C3.43949 19.0769 3.4375 17.3835 3.4375 15C3.4375 12.6165 3.43949 10.9231 3.6122 9.63856C3.78128 8.38095 4.09837 7.65639 4.62738 7.12738Z"
        fill="#22283A" />
</svg>