<svg viewBox="0 0 12 15" fill="none" xmlns="http://www.w3.org/2000/svg">
    <g clip-path="url(#clip0_6411_9981)">
        <path
            d="M11.7926 6.16295V7.77009C11.7926 7.9933 11.7144 8.18304 11.5582 8.33929C11.4019 8.49554 11.2122 8.57366 10.989 8.57366H7.50684V12.0558C7.50684 12.279 7.42871 12.4688 7.27246 12.625C7.11621 12.7812 6.92648 12.8594 6.70326 12.8594H5.09612C4.87291 12.8594 4.68318 12.7812 4.52693 12.625C4.37068 12.4688 4.29255 12.279 4.29255 12.0558V8.57366H0.810407C0.587193 8.57366 0.397461 8.49554 0.241211 8.33929C0.0849609 8.18304 0.00683594 7.9933 0.00683594 7.77009V6.16295C0.00683594 5.93973 0.0849609 5.75 0.241211 5.59375C0.397461 5.4375 0.587193 5.35938 0.810407 5.35938H4.29255V1.87723C4.29255 1.65402 4.37068 1.46429 4.52693 1.30804C4.68318 1.15179 4.87291 1.07366 5.09612 1.07366H6.70326C6.92648 1.07366 7.11621 1.15179 7.27246 1.30804C7.42871 1.46429 7.50684 1.65402 7.50684 1.87723V5.35938H10.989C11.2122 5.35938 11.4019 5.4375 11.5582 5.59375C11.7144 5.75 11.7926 5.93973 11.7926 6.16295Z"
            fill="#333333" />
    </g>
    <defs>
        <clipPath id="clip0_6411_9981">
            <rect width="11.8" height="15" fill="white" transform="matrix(1 0 0 -1 0 15)" />
        </clipPath>
    </defs>
</svg>