<svg width="55" height="55" viewBox="0 0 55 55" fill="none" xmlns="http://www.w3.org/2000/svg">
<g clip-path="url(#clip0_6411_9987)">
<path fill-rule="evenodd" clip-rule="evenodd" d="M32.3988 2.13623C40.3458 18.8781 31.6004 35.4183 18.4347 46.6347C18.2089 46.8278 18.1811 47.1682 18.3742 47.394C18.5673 47.6198 18.9077 47.6476 19.1334 47.4545C32.6685 35.9247 41.5412 18.8846 33.3713 1.6738C33.2446 1.40541 32.9233 1.29128 32.6538 1.41877C32.3854 1.5455 32.2713 1.86671 32.3988 2.13623Z" fill="white"/>
<path fill-rule="evenodd" clip-rule="evenodd" d="M19.0314 46.8334C19.3569 45.9448 19.7777 44.8341 19.8218 44.7066C21.0163 41.2532 21.6111 37.7994 21.7218 34.1392C21.7311 33.8422 21.4965 33.5934 21.1995 33.5841C20.9024 33.5747 20.6537 33.8093 20.6443 34.1064C20.5382 37.6557 19.9622 41.0054 18.8031 44.3552C18.7356 44.5505 17.7881 47.0467 17.6344 47.5659C17.5704 47.7785 17.6002 47.9187 17.6104 47.9512C17.658 48.1253 17.7609 48.2184 17.8537 48.2742C17.9589 48.3364 18.1575 48.3967 18.4154 48.3227C18.6849 48.2442 19.2013 47.9455 19.3378 47.8806C21.3993 46.9075 23.6153 45.6418 25.8992 44.8895C28.0773 44.1719 30.3199 43.921 32.5413 44.9342C32.8117 45.0578 33.1317 44.9374 33.2553 44.6671C33.3789 44.3968 33.2586 44.0767 32.9882 43.9531C30.5044 42.8209 27.9967 43.064 25.5627 43.8657C23.2923 44.6138 21.0865 45.8531 19.0314 46.8334Z" fill="white"/>
</g>
<defs>
<clipPath id="clip0_6411_9987">
<rect width="39" height="39" fill="white" transform="translate(0 21.6414) rotate(-33.7044)"/>
</clipPath>
</defs>
</svg>
