<svg viewBox="0 0 18 18" fill="none" xmlns="http://www.w3.org/2000/svg">
    <path
        d="M16.474 8.07459L13.3099 10.8048L14.2739 14.8879C14.3271 15.1095 14.3134 15.342 14.2345 15.5558C14.1557 15.7697 14.0152 15.9554 13.8309 16.0895C13.6465 16.2236 13.4266 16.3 13.1988 16.3091C12.9711 16.3183 12.7457 16.2597 12.5512 16.1408L9.00044 13.9555L5.44755 16.1408C5.25309 16.259 5.028 16.317 4.80064 16.3076C4.57327 16.2981 4.35379 16.2215 4.16984 16.0876C3.98588 15.9536 3.84568 15.7682 3.76688 15.5547C3.68808 15.3413 3.6742 15.1092 3.72701 14.8879L4.69451 10.8048L1.53044 8.07459C1.35839 7.92589 1.23395 7.72979 1.17268 7.51079C1.11141 7.29178 1.11602 7.05958 1.18592 6.84318C1.25583 6.62678 1.38794 6.43578 1.56576 6.29401C1.74358 6.15225 1.95922 6.06601 2.18576 6.04607L6.33419 5.71139L7.93451 1.83857C8.02113 1.62751 8.16856 1.44697 8.35805 1.31991C8.54754 1.19284 8.77054 1.125 8.99869 1.125C9.22684 1.125 9.44983 1.19284 9.63932 1.31991C9.82882 1.44697 9.97624 1.62751 10.0629 1.83857L11.6625 5.71139L15.8109 6.04607C16.0379 6.06527 16.2542 6.15103 16.4326 6.29259C16.6111 6.43416 16.7438 6.62525 16.8142 6.84191C16.8845 7.05857 16.8893 7.29118 16.8281 7.51058C16.7668 7.72998 16.6422 7.92642 16.4697 8.07529L16.474 8.07459Z"
        fill="currentColor" />
</svg>