<svg viewBox="0 0 32 32" fill="none" xmlns="http://www.w3.org/2000/svg">
    <path fill-rule="evenodd" clip-rule="evenodd"
        d="M29.3337 15.9993C29.3337 23.3631 23.3641 29.3327 16.0003 29.3327C8.63653 29.3327 2.66699 23.3631 2.66699 15.9993C2.66699 8.63555 8.63653 2.66602 16.0003 2.66602C23.3641 2.66602 29.3337 8.63555 29.3337 15.9993ZM11.9598 11.9589C12.3504 11.5684 12.9835 11.5684 13.374 11.9589L16.0003 14.5851L18.6265 11.9589C19.017 11.5684 19.6502 11.5684 20.0407 11.9589C20.4312 12.3494 20.4312 12.9826 20.0407 13.3731L17.4145 15.9993L20.0407 18.6255C20.4312 19.016 20.4312 19.6492 20.0407 20.0397C19.6502 20.4303 19.017 20.4303 18.6265 20.0397L16.0003 17.4135L13.3741 20.0398C12.9835 20.4303 12.3504 20.4303 11.9599 20.0398C11.5693 19.6492 11.5693 19.0161 11.9599 18.6255L14.5861 15.9993L11.9598 13.3731C11.5693 12.9826 11.5693 12.3494 11.9598 11.9589Z"
        fill="#B3251E" />
</svg>