<svg viewBox="0 0 20 20" fill="none" xmlns="http://www.w3.org/2000/svg">
    <path fill-rule="evenodd" clip-rule="evenodd"
        d="M9.99984 18.3327C5.39746 18.3327 1.6665 14.6017 1.6665 9.99935C1.6665 5.39698 5.39746 1.66602 9.99984 1.66602C14.6022 1.66602 18.3332 5.39698 18.3332 9.99935C18.3332 14.6017 14.6022 18.3327 9.99984 18.3327ZM11.8748 7.49935C11.8748 7.15417 11.595 6.87435 11.2498 6.87435H7.49984C7.15466 6.87435 6.87484 7.15417 6.87484 7.49935V11.2493C6.87484 11.5945 7.15466 11.8743 7.49984 11.8743C7.84502 11.8743 8.12484 11.5945 8.12484 11.2493V9.00823L12.0579 12.9413C12.302 13.1854 12.6977 13.1854 12.9418 12.9413C13.1859 12.6972 13.1859 12.3015 12.9418 12.0574L9.00872 8.12435H11.2498C11.595 8.12435 11.8748 7.84453 11.8748 7.49935Z"
        fill="#1C274C" />
</svg>