<svg viewBox="0 0 20 20" fill="none" xmlns="http://www.w3.org/2000/svg">
    <path fill-rule="evenodd" clip-rule="evenodd"
        d="M3.47631 2.64428C2.5 3.62059 2.5 5.19194 2.5 8.33463V11.668C2.5 14.8107 2.5 16.382 3.47631 17.3583C4.45262 18.3346 6.02397 18.3346 9.16667 18.3346H10.8333C13.976 18.3346 15.5474 18.3346 16.5237 17.3583C17.5 16.382 17.5 14.8107 17.5 11.668V8.33464C17.5 5.19194 17.5 3.62059 16.5237 2.64428C15.5474 1.66797 13.976 1.66797 10.8333 1.66797H9.16667C6.02397 1.66797 4.45262 1.66797 3.47631 2.64428ZM6.04167 6.66797C6.04167 6.32279 6.32149 6.04297 6.66667 6.04297H13.3333C13.6785 6.04297 13.9583 6.32279 13.9583 6.66797C13.9583 7.01315 13.6785 7.29297 13.3333 7.29297H6.66667C6.32149 7.29297 6.04167 7.01315 6.04167 6.66797ZM6.04167 10.0013C6.04167 9.65612 6.32149 9.3763 6.66667 9.3763H13.3333C13.6785 9.3763 13.9583 9.65612 13.9583 10.0013C13.9583 10.3465 13.6785 10.6263 13.3333 10.6263H6.66667C6.32149 10.6263 6.04167 10.3465 6.04167 10.0013ZM6.66667 12.7096C6.32149 12.7096 6.04167 12.9895 6.04167 13.3346C6.04167 13.6798 6.32149 13.9596 6.66667 13.9596H10.8333C11.1785 13.9596 11.4583 13.6798 11.4583 13.3346C11.4583 12.9895 11.1785 12.7096 10.8333 12.7096H6.66667Z"
        fill="currentColor" />
</svg>