<svg viewBox="0 0 18 18" fill="none" xmlns="http://www.w3.org/2000/svg">
    <path
        d="M7.5 16.5002H10.5C13.3284 16.5002 14.7426 16.5002 15.6213 15.6215C16.5 14.7428 16.5 13.3286 16.5 10.5002C16.5 7.67173 16.5 6.25751 15.6213 5.37883C15.3494 5.10688 15.0257 4.9191 14.6247 4.78944C14.625 4.91658 14.625 5.04661 14.625 5.17888L14.625 6.79745C14.625 6.81947 14.6252 6.84346 14.6254 6.8692C14.6277 7.12454 14.6314 7.55248 14.448 7.94403C14.2646 8.33557 13.9335 8.60668 13.7359 8.76844C13.7162 8.78459 13.6973 8.80006 13.6805 8.81404L12.5506 9.75561C11.9051 10.2936 11.3431 10.762 10.8379 11.0869C10.2934 11.4371 9.70432 11.6962 9.00001 11.6962C8.2957 11.6962 7.70666 11.4371 7.16212 11.0869C6.65692 10.762 6.09496 10.2936 5.44941 9.75561L4.31952 8.81403C4.30261 8.79994 4.28405 8.78475 4.26414 8.76844C4.06656 8.60668 3.73542 8.33557 3.55203 7.94403C3.36864 7.55248 3.37236 7.12454 3.37458 6.8692C3.3748 6.84346 3.37501 6.81947 3.37501 6.79745L3.37501 5.17887C3.37499 5.04644 3.37498 4.91646 3.3753 4.78917C2.97432 4.91884 2.65082 5.1067 2.37868 5.37883C1.5 6.25751 1.5 7.67173 1.5 10.5002C1.5 13.3286 1.5 14.7428 2.37868 15.6215C3.25736 16.5002 4.67158 16.5002 7.5 16.5002Z"
        fill="#999999" />
    <path fill-rule="evenodd" clip-rule="evenodd"
        d="M5.03979 7.94977L6.11924 8.84931C7.49671 9.99721 8.18545 10.5712 9.00006 10.5712C9.81468 10.5712 10.5034 9.99721 11.8809 8.84931L12.9603 7.94977C13.2257 7.7286 13.3584 7.61801 13.4293 7.46684C13.5001 7.31566 13.5001 7.14292 13.5001 6.79744V5.25C13.5001 5.00953 13.5001 4.78541 13.4987 4.57626C13.4899 3.24795 13.4254 2.52364 12.9509 2.04917C12.4017 1.5 11.5178 1.5 9.75006 1.5H8.25006C6.4823 1.5 5.59841 1.5 5.04924 2.04917C4.57477 2.52364 4.50885 3.24795 4.50007 4.57626C4.49868 4.78541 4.50006 5.00953 4.50006 5.25V6.79744C4.50006 7.14292 4.50006 7.31566 4.57087 7.46684C4.64168 7.61801 4.77438 7.7286 5.03979 7.94977ZM6.9375 4.5C6.9375 4.18934 7.18934 3.9375 7.5 3.9375H10.5C10.8107 3.9375 11.0625 4.18934 11.0625 4.5C11.0625 4.81066 10.8107 5.0625 10.5 5.0625H7.5C7.18934 5.0625 6.9375 4.81066 6.9375 4.5ZM7.6875 6.75C7.6875 6.43934 7.93934 6.1875 8.25 6.1875H9.75C10.0607 6.1875 10.3125 6.43934 10.3125 6.75C10.3125 7.06066 10.0607 7.3125 9.75 7.3125H8.25C7.93934 7.3125 7.6875 7.06066 7.6875 6.75Z"
        fill="#999999" />
</svg>