<svg viewBox="0 0 16 16" fill="none" xmlns="http://www.w3.org/2000/svg">
    <g clip-path="url(#clip0_8107_1203)">
        <path
            d="M12.5149 3.60331C12.4166 3.55247 12.3208 3.49674 12.228 3.43632C11.9582 3.25793 11.7107 3.04773 11.4911 2.81025C10.9415 2.18145 10.7363 1.54354 10.6607 1.09691H10.6637C10.6006 0.72619 10.6267 0.486328 10.6306 0.486328H8.12758V10.1652C8.12758 10.2951 8.12758 10.4236 8.12211 10.5505C8.12211 10.5663 8.12059 10.5809 8.11968 10.5979C8.11968 10.6048 8.11968 10.6121 8.11817 10.6194V10.6249C8.09178 10.9722 7.98046 11.3076 7.79399 11.6018C7.60752 11.8959 7.35163 12.1398 7.04881 12.3118C6.73321 12.4914 6.37625 12.5855 6.01315 12.5851C4.84694 12.5851 3.90176 11.6341 3.90176 10.4597C3.90176 9.2853 4.84694 8.33435 6.01315 8.33435C6.23391 8.33415 6.45331 8.36889 6.66321 8.43728L6.66624 5.88868C6.02905 5.80637 5.38172 5.85701 4.76508 6.0374C4.14843 6.2178 3.57587 6.52403 3.0835 6.93678C2.65208 7.31163 2.28937 7.7589 2.01172 8.25845C1.90606 8.44062 1.5074 9.17266 1.45912 10.3607C1.42876 11.0351 1.63128 11.7337 1.72783 12.0225V12.0285C1.78855 12.1986 2.02386 12.7788 2.40734 13.2679C2.71656 13.6603 3.08189 14.0049 3.49157 14.2908V14.2847L3.49764 14.2908C4.7094 15.1142 6.05293 15.0602 6.05293 15.0602C6.2855 15.0508 7.0646 15.0602 7.94935 14.6409C8.93066 14.176 9.48932 13.4835 9.48932 13.4835C9.84623 13.0697 10.13 12.5981 10.3285 12.0889C10.555 11.4935 10.6306 10.7794 10.6306 10.494V5.35916C10.661 5.37738 11.0654 5.64487 11.0654 5.64487C11.0654 5.64487 11.6481 6.01832 12.5571 6.26153C13.2093 6.43459 14.088 6.47102 14.088 6.47102V3.98618C13.7801 4.01958 13.155 3.92242 12.5149 3.60331Z"
            fill="currentColor" />
    </g>
    <defs>
        <clipPath id="clip0_8107_1203">
            <rect width="15.5455" height="15.5455" fill="currentColor" />
        </clipPath>
    </defs>
</svg>