<svg viewBox="0 0 64 64" fill="none" xmlns="http://www.w3.org/2000/svg">
    <circle cx="32" cy="32" r="30" fill="#EFF1F6" stroke="#22283A" stroke-width="4" />
    <circle cx="32" cy="32" r="24" fill="#22283A" />
    <path
        d="M37.0839 35.812C39.6827 33.0691 39.6379 28.7385 36.9497 26.0503C34.2161 23.3166 29.7839 23.3166 27.0503 26.0503C24.3621 28.7385 24.3173 33.0691 26.9161 35.812C27.9776 34.1228 29.8577 33 32 33C34.1423 33 36.0224 34.1228 37.0839 35.812ZM32 43.7279L25.636 37.364C22.1213 33.8492 22.1213 28.1508 25.636 24.636C29.1508 21.1213 34.8492 21.1213 38.364 24.636C41.8787 28.1508 41.8787 33.8492 38.364 37.364L32 43.7279ZM32 32C30.3431 32 29 30.6569 29 29C29 27.3432 30.3431 26 32 26C33.6569 26 35 27.3432 35 29C35 30.6569 33.6569 32 32 32Z"
        fill="white" />
</svg>