<svg viewBox="0 0 18 18" fill="none" xmlns="http://www.w3.org/2000/svg">
    <path fill-rule="evenodd" clip-rule="evenodd"
        d="M15.9375 6.375C15.9375 5.32165 15.9375 4.79498 15.6847 4.41664C15.5753 4.25286 15.4346 4.11223 15.2709 4.0028C14.9399 3.78168 14.4955 3.75397 13.6845 3.7505C13.6876 3.96904 13.6875 4.19741 13.6875 4.43288L13.6875 4.5V5.4375H14.4375C14.7482 5.4375 15 5.68934 15 6C15 6.31066 14.7482 6.5625 14.4375 6.5625H13.6875V7.6875H14.4375C14.7482 7.6875 15 7.93934 15 8.25C15 8.56066 14.7482 8.8125 14.4375 8.8125H13.6875V9.9375H14.4375C14.7482 9.9375 15 10.1893 15 10.5C15 10.8107 14.7482 11.0625 14.4375 11.0625H13.6875V15.9375H12.5625V4.5C12.5625 3.08579 12.5625 2.37868 12.1232 1.93934C11.6838 1.5 10.9767 1.5 9.5625 1.5H8.0625C6.64829 1.5 5.94118 1.5 5.50184 1.93934C5.0625 2.37868 5.0625 3.08579 5.0625 4.5V15.9375H3.9375V11.0625H3.1875C2.87684 11.0625 2.625 10.8107 2.625 10.5C2.625 10.1893 2.87684 9.9375 3.1875 9.9375H3.9375V8.8125H3.1875C2.87684 8.8125 2.625 8.56066 2.625 8.25C2.625 7.93934 2.87684 7.6875 3.1875 7.6875H3.9375V6.5625H3.1875C2.87684 6.5625 2.625 6.31066 2.625 6C2.625 5.68934 2.87684 5.4375 3.1875 5.4375H3.9375V4.5L3.93749 4.43288C3.93747 4.19741 3.93744 3.96904 3.94052 3.7505C3.12947 3.75397 2.68506 3.78168 2.35414 4.0028C2.19036 4.11223 2.04973 4.25286 1.9403 4.41664C1.6875 4.79498 1.6875 5.32165 1.6875 6.375V15.9375H1.3125C1.00184 15.9375 0.75 16.1893 0.75 16.5C0.75 16.8107 1.00184 17.0625 1.3125 17.0625H16.3125C16.6232 17.0625 16.875 16.8107 16.875 16.5C16.875 16.1893 16.6232 15.9375 16.3125 15.9375H15.9375V6.375ZM6.75 8.8125C6.75 8.50184 7.00184 8.25 7.3125 8.25H10.3125C10.6232 8.25 10.875 8.50184 10.875 8.8125C10.875 9.12316 10.6232 9.375 10.3125 9.375H7.3125C7.00184 9.375 6.75 9.12316 6.75 8.8125ZM6.75 11.0625C6.75 10.7518 7.00184 10.5 7.3125 10.5H10.3125C10.6232 10.5 10.875 10.7518 10.875 11.0625C10.875 11.3732 10.6232 11.625 10.3125 11.625H7.3125C7.00184 11.625 6.75 11.3732 6.75 11.0625ZM8.8125 13.6875C9.12316 13.6875 9.375 13.9393 9.375 14.25V15.9375H8.25V14.25C8.25 13.9393 8.50184 13.6875 8.8125 13.6875ZM6.75 4.6875C6.75 4.37684 7.00184 4.125 7.3125 4.125H10.3125C10.6232 4.125 10.875 4.37684 10.875 4.6875C10.875 4.99816 10.6232 5.25 10.3125 5.25H7.3125C7.00184 5.25 6.75 4.99816 6.75 4.6875ZM6.75 6.9375C6.75 6.62684 7.00184 6.375 7.3125 6.375H10.3125C10.6232 6.375 10.875 6.62684 10.875 6.9375C10.875 7.24816 10.6232 7.5 10.3125 7.5H7.3125C7.00184 7.5 6.75 7.24816 6.75 6.9375Z"
        fill="#999999" />
</svg>