<svg  viewBox="0 0 18 18" fill="none" xmlns="http://www.w3.org/2000/svg">
<path fill-rule="evenodd" clip-rule="evenodd" d="M3.12868 2.37868C2.25 3.25736 2.25 4.67157 2.25 7.5V10.5C2.25 13.3284 2.25 14.7426 3.12868 15.6213C4.00736 16.5 5.42157 16.5 8.25 16.5H9.75C12.5784 16.5 13.9926 16.5 14.8713 15.6213C15.75 14.7426 15.75 13.3284 15.75 10.5V7.5C15.75 4.67157 15.75 3.25736 14.8713 2.37868C13.9926 1.5 12.5784 1.5 9.75 1.5H8.25C5.42157 1.5 4.00736 1.5 3.12868 2.37868ZM5.4375 6C5.4375 5.68934 5.68934 5.4375 6 5.4375H12C12.3107 5.4375 12.5625 5.68934 12.5625 6C12.5625 6.31066 12.3107 6.5625 12 6.5625H6C5.68934 6.5625 5.4375 6.31066 5.4375 6ZM5.4375 9C5.4375 8.68934 5.68934 8.4375 6 8.4375H12C12.3107 8.4375 12.5625 8.68934 12.5625 9C12.5625 9.31066 12.3107 9.5625 12 9.5625H6C5.68934 9.5625 5.4375 9.31066 5.4375 9ZM6 11.4375C5.68934 11.4375 5.4375 11.6893 5.4375 12C5.4375 12.3107 5.68934 12.5625 6 12.5625H9.75C10.0607 12.5625 10.3125 12.3107 10.3125 12C10.3125 11.6893 10.0607 11.4375 9.75 11.4375H6Z" fill="currentColor"/>
</svg>
