<svg viewBox="0 0 18 18" fill="none" xmlns="http://www.w3.org/2000/svg">
    <path fill-rule="evenodd" clip-rule="evenodd"
        d="M2.37868 3.87868C1.5 4.75736 1.5 6.17157 1.5 9C1.5 11.8284 1.5 13.2426 2.37868 14.1213C3.25736 15 4.67157 15 7.5 15H10.5C13.3284 15 14.7426 15 15.6213 14.1213C16.5 13.2426 16.5 11.8284 16.5 9C16.5 6.17157 16.5 4.75736 15.6213 3.87868C14.7426 3 13.3284 3 10.5 3H7.5C4.67157 3 3.25736 3 2.37868 3.87868ZM13.9321 5.6399C14.131 5.87855 14.0988 6.23324 13.8601 6.43212L12.2127 7.80492C11.548 8.35892 11.0092 8.80794 10.5336 9.11379C10.0382 9.43239 9.55581 9.63366 9 9.63366C8.44419 9.63366 7.96176 9.43239 7.46638 9.11379C6.99084 8.80794 6.45203 8.35892 5.78727 7.80493L4.1399 6.43212C3.90124 6.23324 3.869 5.87855 4.06788 5.6399C4.26676 5.40124 4.62145 5.369 4.8601 5.56788L6.47928 6.91719C7.179 7.50028 7.6648 7.90381 8.07494 8.1676C8.47196 8.42294 8.7412 8.50866 9 8.50866C9.2588 8.50866 9.52804 8.42294 9.92506 8.1676C10.3352 7.90381 10.821 7.50028 11.5207 6.91718L13.1399 5.56788C13.3786 5.369 13.7332 5.40124 13.9321 5.6399Z"
        fill="currentColor" />
</svg>