<svg viewBox="0 0 16 16" fill="none" xmlns="http://www.w3.org/2000/svg">
    <path
        d="M9.5 2C9.5 1.72386 9.72387 1.5 10 1.5H14C14.2761 1.5 14.5 1.72386 14.5 2V6C14.5 6.27614 14.2761 6.5 14 6.5C13.7239 6.5 13.5 6.27614 13.5 6V2.5H10C9.72387 2.5 9.5 2.27614 9.5 2Z"
        fill="#666666" />
    <path
        d="M1.5 2C1.5 1.72386 1.72386 1.5 2 1.5H6C6.27614 1.5 6.5 1.72386 6.5 2C6.5 2.27614 6.27614 2.5 6 2.5H2.5V6C2.5 6.27614 2.27614 6.5 2 6.5C1.72386 6.5 1.5 6.27614 1.5 6V2Z"
        fill="#666666" />
    <path
        d="M14 9.5C14.2761 9.5 14.5 9.72387 14.5 10V14C14.5 14.2761 14.2761 14.5 14 14.5H10C9.72387 14.5 9.5 14.2761 9.5 14C9.5 13.7239 9.72387 13.5 10 13.5H13.5V10C13.5 9.72387 13.7239 9.5 14 9.5Z"
        fill="#666666" />
    <path
        d="M2 9.5C2.27614 9.5 2.5 9.72387 2.5 10V13.5H6C6.27614 13.5 6.5 13.7239 6.5 14C6.5 14.2761 6.27614 14.5 6 14.5H2C1.72386 14.5 1.5 14.2761 1.5 14V10C1.5 9.72387 1.72386 9.5 2 9.5Z"
        fill="#666666" />
    <path
        d="M14.3534 1.64645C14.5486 1.84171 14.5486 2.15829 14.3534 2.35355L10.02 6.68687C9.82475 6.88213 9.50822 6.88213 9.31295 6.68687C9.11769 6.49163 9.11769 6.17504 9.31295 5.97978L13.6463 1.64645C13.8416 1.45118 14.1581 1.45118 14.3534 1.64645Z"
        fill="#666666" />
    <path
        d="M6.68687 9.31295C6.88213 9.50822 6.88213 9.82475 6.68687 10.02L2.35355 14.3534C2.15829 14.5486 1.84171 14.5486 1.64645 14.3534C1.45118 14.1581 1.45118 13.8416 1.64645 13.6463L5.97978 9.31295C6.17504 9.11769 6.49163 9.11769 6.68687 9.31295Z"
        fill="#666666" />
</svg>