<svg width="18" height="18" viewBox="0 0 18 18" fill="none" xmlns="http://www.w3.org/2000/svg">
<path d="M10.5 3H7.5C4.67157 3 3.25736 3 2.37868 3.87868C1.74602 4.51134 1.56889 5.42162 1.51929 6.9375H16.4807C16.4311 5.42162 16.254 4.51134 15.6213 3.87868C14.7426 3 13.3284 3 10.5 3Z" fill="currentColor"/>
<path fill-rule="evenodd" clip-rule="evenodd" d="M10.5 15H7.5C4.67157 15 3.25736 15 2.37868 14.1213C1.5 13.2426 1.5 11.8284 1.5 9C1.5 8.66855 1.5 8.35652 1.50141 8.0625H16.4986C16.5 8.35652 16.5 8.66855 16.5 9C16.5 11.8284 16.5 13.2426 15.6213 14.1213C14.7426 15 13.3284 15 10.5 15ZM12.0336 9.1875C12.3582 9.18746 12.6558 9.18742 12.8979 9.21997C13.1645 9.25582 13.4463 9.34016 13.6781 9.57192C13.9098 9.80369 13.9942 10.0855 14.03 10.3521C14.0626 10.5942 14.0625 10.8918 14.0625 11.2164V11.2836C14.0625 11.6082 14.0626 11.9058 14.03 12.1479C13.9942 12.4145 13.9098 12.6963 13.6781 12.9281C13.4463 13.1598 13.1645 13.2442 12.8979 13.28C12.6558 13.3126 12.3582 13.3125 12.0336 13.3125L12 13.3125L11.9664 13.3125C11.6418 13.3125 11.3442 13.3126 11.1021 13.28C10.8355 13.2442 10.5537 13.1598 10.3219 12.9281C10.0902 12.6963 10.0058 12.4145 9.96997 12.1479C9.93742 11.9058 9.93746 11.6082 9.9375 11.2836L9.9375 11.25L9.9375 11.2164C9.93746 10.8918 9.93742 10.5942 9.96997 10.3521C10.0058 10.0855 10.0902 9.80369 10.3219 9.57192C10.5537 9.34016 10.8355 9.25582 11.1021 9.21997C11.3442 9.18742 11.6418 9.18746 11.9664 9.1875H12.0336ZM3.9375 10.125C3.9375 9.81434 4.18934 9.5625 4.5 9.5625H6C6.31066 9.5625 6.5625 9.81434 6.5625 10.125C6.5625 10.4357 6.31066 10.6875 6 10.6875H4.5C4.18934 10.6875 3.9375 10.4357 3.9375 10.125ZM3.9375 12.375C3.9375 12.0643 4.18934 11.8125 4.5 11.8125H7.5C7.81066 11.8125 8.0625 12.0643 8.0625 12.375C8.0625 12.6857 7.81066 12.9375 7.5 12.9375H4.5C4.18934 12.9375 3.9375 12.6857 3.9375 12.375Z" fill="currentColor"/>
<path d="M11.1175 10.3674L11.1193 10.3664C11.1207 10.3656 11.1232 10.3644 11.127 10.3629C11.1433 10.3561 11.1796 10.3447 11.252 10.3349C11.41 10.3137 11.6305 10.3125 12 10.3125C12.3695 10.3125 12.59 10.3137 12.748 10.3349C12.8204 10.3447 12.8567 10.3561 12.873 10.3629C12.8768 10.3644 12.8793 10.3656 12.8807 10.3664L12.8826 10.3674L12.8836 10.3693C12.8844 10.3707 12.8856 10.3732 12.8871 10.377C12.8939 10.3933 12.9053 10.4296 12.9151 10.502C12.9363 10.66 12.9375 10.8805 12.9375 11.25C12.9375 11.6195 12.9363 11.84 12.9151 11.998C12.9053 12.0704 12.8939 12.1067 12.8871 12.123C12.8856 12.1268 12.8844 12.1293 12.8836 12.1307L12.8826 12.1326L12.8807 12.1336C12.8793 12.1344 12.8768 12.1356 12.873 12.1371C12.8567 12.1439 12.8204 12.1553 12.748 12.1651C12.59 12.1863 12.3695 12.1875 12 12.1875C11.6305 12.1875 11.41 12.1863 11.252 12.1651C11.1796 12.1553 11.1433 12.1439 11.127 12.1371C11.1232 12.1356 11.1207 12.1344 11.1193 12.1336L11.1174 12.1326L11.1164 12.1307C11.1156 12.1293 11.1144 12.1268 11.1129 12.123C11.1061 12.1067 11.0947 12.0704 11.0849 11.998C11.0637 11.84 11.0625 11.6195 11.0625 11.25C11.0625 10.8805 11.0637 10.66 11.0849 10.502C11.0947 10.4296 11.1061 10.3933 11.1129 10.377C11.1144 10.3732 11.1156 10.3707 11.1164 10.3693L11.1175 10.3674Z" fill="currentColor"/>
</svg>
