<svg viewBox="0 0 18 18" fill="none" xmlns="http://www.w3.org/2000/svg">
    <path fill-rule="evenodd" clip-rule="evenodd"
        d="M3.9375 7.54096V6C3.9375 3.20406 6.20406 0.9375 9 0.9375C11.7959 0.9375 14.0625 3.20406 14.0625 6V7.54096C14.8986 7.6034 15.443 7.76104 15.841 8.15901C16.5 8.81802 16.5 9.87868 16.5 12C16.5 14.1213 16.5 15.182 15.841 15.841C15.182 16.5 14.1213 16.5 12 16.5H6C3.87868 16.5 2.81802 16.5 2.15901 15.841C1.5 15.182 1.5 14.1213 1.5 12C1.5 9.87868 1.5 8.81802 2.15901 8.15901C2.55698 7.76104 3.10143 7.6034 3.9375 7.54096ZM5.0625 6C5.0625 3.82538 6.82538 2.0625 9 2.0625C11.1746 2.0625 12.9375 3.82538 12.9375 6V7.50268C12.6502 7.5 12.3386 7.5 12 7.5H6C5.66136 7.5 5.34976 7.5 5.0625 7.50268V6ZM6 12.75C6.41421 12.75 6.75 12.4142 6.75 12C6.75 11.5858 6.41421 11.25 6 11.25C5.58579 11.25 5.25 11.5858 5.25 12C5.25 12.4142 5.58579 12.75 6 12.75ZM9 12.75C9.41421 12.75 9.75 12.4142 9.75 12C9.75 11.5858 9.41421 11.25 9 11.25C8.58579 11.25 8.25 11.5858 8.25 12C8.25 12.4142 8.58579 12.75 9 12.75ZM12.75 12C12.75 12.4142 12.4142 12.75 12 12.75C11.5858 12.75 11.25 12.4142 11.25 12C11.25 11.5858 11.5858 11.25 12 11.25C12.4142 11.25 12.75 11.5858 12.75 12Z"
        fill="currentColor" />
</svg>