<svg viewBox="0 0 13 13" fill="none" xmlns="http://www.w3.org/2000/svg">
    <g clip-path="url(#clip0_7074_15320)">
        <path
            d="M6.4001 12.8001C6.21121 12.7998 6.03012 12.7247 5.89655 12.5911C5.76298 12.4576 5.68784 12.2765 5.6876 12.0876V7.11259H0.7126C0.523607 7.11259 0.342354 7.03751 0.208716 6.90387C0.0750773 6.77023 0 6.58898 0 6.39999C0 6.21099 0.0750773 6.02974 0.208716 5.8961C0.342354 5.76247 0.523607 5.68739 0.7126 5.68739H5.6876V0.712588C5.6876 0.523598 5.76268 0.342348 5.89631 0.208712C6.02995 0.075076 6.2112 0 6.40019 0C6.58918 0 6.77043 0.075076 6.90406 0.208712C7.0377 0.342348 7.11277 0.523598 7.11277 0.712588V5.68759H12.0876C12.2766 5.68759 12.4578 5.76266 12.5915 5.8963C12.7251 6.02994 12.8002 6.21119 12.8002 6.40019C12.8002 6.58918 12.7251 6.77043 12.5915 6.90407C12.4578 7.03771 12.2766 7.11279 12.0876 7.11279H7.1126V12.0876C7.11236 12.2765 7.03722 12.4576 6.90365 12.5911C6.77008 12.7247 6.58899 12.7998 6.4001 12.8001Z"
            fill="#666666" />
    </g>
    <defs>
        <clipPath id="clip0_7074_15320">
            <rect width="12.8" height="12.8" fill="white" />
        </clipPath>
    </defs>
</svg>