<svg viewBox="0 0 20 24" fill="none" xmlns="http://www.w3.org/2000/svg">
    <path fill-rule="evenodd" clip-rule="evenodd"
        d="M9.99828 0C13.0818 0 15.5815 2.4997 15.5815 5.58325C15.5815 8.48744 13.3641 10.8737 10.53 11.1415V17.0156C10.53 17.3093 10.292 17.5473 9.99828 17.5473C9.70461 17.5473 9.46655 17.3093 9.46655 17.0156V11.1415C6.63242 10.8737 4.41504 8.48744 4.41504 5.58325C4.41504 2.4997 6.91474 0 9.99828 0Z"
        fill="#22283A" />
    <path
        d="M11.8594 5.58423C11.8594 4.55638 11.0261 3.72314 9.99829 3.72314C8.97044 3.72314 8.13721 4.55638 8.13721 5.58423C8.13721 6.61207 8.97044 7.44531 9.99829 7.44531C11.0261 7.44531 11.8594 6.61207 11.8594 5.58423Z"
        fill="white" />
    <path opacity="0.3"
        d="M9.99829 18.0798C10.7325 18.0798 11.3276 17.7822 11.3276 17.4152C11.3276 17.0481 10.7325 16.7505 9.99829 16.7505C9.26411 16.7505 8.66895 17.0481 8.66895 17.4152C8.66895 17.7822 9.26411 18.0798 9.99829 18.0798Z"
        fill="#22283A" />
</svg>